<?xml version="1.0" encoding="UTF-8" standalone="no"?>
<!-- Created with Inkscape (http://www.inkscape.org/) -->

<svg
   version="1.1"
   id="svg1330"
   width="666.66669"
   height="666.66669"
   viewBox="0 0 666.66669 666.66669"
   sodipodi:docname="hero-image.svg"
   inkscape:version="1.2.1 (9c6d41e410, 2022-07-14)"
   xmlns:inkscape="http://www.inkscape.org/namespaces/inkscape"
   xmlns:sodipodi="http://sodipodi.sourceforge.net/DTD/sodipodi-0.dtd"
   xmlns="http://www.w3.org/2000/svg"
   xmlns:svg="http://www.w3.org/2000/svg">
  <defs
     id="defs1334">
    <clipPath
       clipPathUnits="userSpaceOnUse"
       id="clipPath1352">
      <path
         d="M 0,500 H 500 V 0 H 0 Z"
         id="path1350" />
    </clipPath>
    <clipPath
       clipPathUnits="userSpaceOnUse"
       id="clipPath1440">
      <path
         d="M 0,500 H 500 V 0 H 0 Z"
         id="path1438" />
    </clipPath>
    <clipPath
       clipPathUnits="userSpaceOnUse"
       id="clipPath1488">
      <path
         d="M 0,500 H 500 V 0 H 0 Z"
         id="path1486" />
    </clipPath>
    <clipPath
       clipPathUnits="userSpaceOnUse"
       id="clipPath1504">
      <path
         d="M 0,500 H 500 V 0 H 0 Z"
         id="path1502" />
    </clipPath>
    <clipPath
       clipPathUnits="userSpaceOnUse"
       id="clipPath1520">
      <path
         d="M 0,500 H 500 V 0 H 0 Z"
         id="path1518" />
    </clipPath>
    <clipPath
       clipPathUnits="userSpaceOnUse"
       id="clipPath1574">
      <path
         d="M 0,500 H 500 V 0 H 0 Z"
         id="path1572" />
    </clipPath>
    <clipPath
       clipPathUnits="userSpaceOnUse"
       id="clipPath1604">
      <path
         d="M 0,500 H 500 V 0 H 0 Z"
         id="path1602" />
    </clipPath>
    <clipPath
       clipPathUnits="userSpaceOnUse"
       id="clipPath1622">
      <path
         d="m 372.521,371.574 h 95.566 v -11.529 h -95.566 z"
         id="path1620" />
    </clipPath>
    <clipPath
       clipPathUnits="userSpaceOnUse"
       id="clipPath1652">
      <path
         d="M 0,500 H 500 V 0 H 0 Z"
         id="path1650" />
    </clipPath>
    <clipPath
       clipPathUnits="userSpaceOnUse"
       id="clipPath1666">
      <path
         d="m 42.9473,330.325 h 79.1117 v -9.544 H 42.9473 Z"
         id="path1664" />
    </clipPath>
    <clipPath
       clipPathUnits="userSpaceOnUse"
       id="clipPath1700">
      <path
         d="M 0,500 H 500 V 0 H 0 Z"
         id="path1698" />
    </clipPath>
    <clipPath
       clipPathUnits="userSpaceOnUse"
       id="clipPath1728">
      <path
         d="M 170.518,209.834 H 314.701 V 90.4437 H 170.518 Z"
         id="path1726" />
    </clipPath>
    <clipPath
       clipPathUnits="userSpaceOnUse"
       id="clipPath1766">
      <path
         d="m 232.258,249.989 h 144.36 v -140.51 h -144.36 z"
         id="path1764" />
    </clipPath>
    <clipPath
       clipPathUnits="userSpaceOnUse"
       id="clipPath1812">
      <path
         d="M 285.25,250.803 H 445.237 V 72.3743 H 285.25 Z"
         id="path1810" />
    </clipPath>
    <clipPath
       clipPathUnits="userSpaceOnUse"
       id="clipPath1914">
      <path
         d="m 282.311,254.77 h 48.814 v -13.068 h -48.814 z"
         id="path1912" />
    </clipPath>
    <clipPath
       clipPathUnits="userSpaceOnUse"
       id="clipPath1942">
      <path
         d="M 0,500 H 500 V 0 H 0 Z"
         id="path1940" />
    </clipPath>
    <clipPath
       clipPathUnits="userSpaceOnUse"
       id="clipPath2010">
      <path
         d="m 400.584,87.2786 h 12.497 V 82.446 h -12.497 z"
         id="path2008" />
    </clipPath>
    <clipPath
       clipPathUnits="userSpaceOnUse"
       id="clipPath2046">
      <path
         d="M 0,500 H 500 V 0 H 0 Z"
         id="path2044" />
    </clipPath>
  </defs>
  <sodipodi:namedview
     id="namedview1332"
     pagecolor="#505050"
     bordercolor="#ffffff"
     borderopacity="1"
     inkscape:showpageshadow="0"
     inkscape:pageopacity="0"
     inkscape:pagecheckerboard="1"
     inkscape:deskcolor="#505050"
     showgrid="false"
     inkscape:zoom="1.206"
     inkscape:cx="402.98509"
     inkscape:cy="264.09619"
     inkscape:window-width="1920"
     inkscape:window-height="991"
     inkscape:window-x="-9"
     inkscape:window-y="-9"
     inkscape:window-maximized="1"
     inkscape:current-layer="g1338">
    <inkscape:page
       x="0"
       y="0"
       id="page1336"
       width="666.66669"
       height="666.66669" />
  </sodipodi:namedview>
  <g
     id="g1338"
     inkscape:groupmode="layer"
     inkscape:label="Page 1"
     transform="matrix(1.3333333,0,0,-1.3333333,0,666.66667)">
    <path
       d="M 362.67,211.267 H 60.565 V 395.963 H 362.67 Z"
       style="fill:#ffffff;fill-opacity:1;fill-rule:nonzero;stroke:#e1e1e1;stroke-width:1;stroke-linecap:butt;stroke-linejoin:miter;stroke-miterlimit:10;stroke-dasharray:none;stroke-opacity:1"
       id="path1340" />
    <g
       id="g1342"
       transform="translate(60.5641,372.0309)">
      <path
         d="M 0,0 H 302.105"
         style="fill:none;stroke:#e1e1e1;stroke-width:1;stroke-linecap:butt;stroke-linejoin:miter;stroke-miterlimit:10;stroke-dasharray:none;stroke-opacity:1"
         id="path1344" />
    </g>
    <g
       id="g1346">
      <g
         id="g1348"
         clip-path="url(#clipPath1352)">
        <g
           id="g1354"
           transform="translate(81.9113,383.2365)">
          <path
             d="m 0,0 c 0,-3.161 -2.563,-5.724 -5.724,-5.724 -3.161,0 -5.723,2.563 -5.723,5.724 0,3.161 2.562,5.724 5.723,5.724 C -2.563,5.724 0,3.161 0,0"
             style="fill:#e1e1e1;fill-opacity:1;fill-rule:nonzero;stroke:none"
             id="path1356" />
        </g>
        <g
           id="g1358"
           transform="translate(105.2824,383.2365)">
          <path
             d="m 0,0 c 0,-3.161 -2.562,-5.724 -5.723,-5.724 -3.161,0 -5.724,2.563 -5.724,5.724 0,3.161 2.563,5.724 5.724,5.724 C -2.562,5.724 0,3.161 0,0"
             style="fill:#f0f0f0;fill-opacity:1;fill-rule:nonzero;stroke:none"
             id="path1360" />
        </g>
        <g
           id="g1362"
           transform="translate(128.6544,383.2365)">
          <path
             d="m 0,0 c 0,-3.161 -2.563,-5.724 -5.724,-5.724 -3.161,0 -5.724,2.563 -5.724,5.724 0,3.161 2.563,5.724 5.724,5.724 C -2.563,5.724 0,3.161 0,0"
             style="fill:#f5f5f5;fill-opacity:1;fill-rule:nonzero;stroke:none"
             id="path1364" />
        </g>
        <path
           d="M 94.062,321.35 H 77.96 v 4.441 h 16.102 z"
           style="fill:#e7e7e7;fill-opacity:1;fill-rule:nonzero;stroke:none"
           id="path1366" />
        <path
           d="M 215.133,321.35 H 105.797 v 4.441 h 109.336 z"
           style="fill:#e7e7e7;fill-opacity:1;fill-rule:nonzero;stroke:none"
           id="path1368" />
        <path
           d="m 255.61,321.35 h -30.584 v 4.441 h 30.584 z"
           style="fill:#e7e7e7;fill-opacity:1;fill-rule:nonzero;stroke:none"
           id="path1370" />
        <path
           d="m 325.563,261.921 h -30.584 v 4.441 h 30.584 z"
           style="fill:#e7e7e7;fill-opacity:1;fill-rule:nonzero;stroke:none"
           id="path1372" />
        <path
           d="m 315.129,321.35 h -52.87 v 4.441 h 52.87 z"
           style="fill:#e7e7e7;fill-opacity:1;fill-rule:nonzero;stroke:none"
           id="path1374" />
        <path
           d="M 110.163,309.465 H 94.062 v 4.441 h 16.101 z"
           style="fill:#e7e7e7;fill-opacity:1;fill-rule:nonzero;stroke:none"
           id="path1376" />
        <path
           d="m 192.463,309.465 h -70.969 v 4.441 h 70.969 z"
           style="fill:#e7e7e7;fill-opacity:1;fill-rule:nonzero;stroke:none"
           id="path1378" />
        <path
           d="m 287.714,261.921 h -70.969 v 4.441 h 70.969 z"
           style="fill:#e7e7e7;fill-opacity:1;fill-rule:nonzero;stroke:none"
           id="path1380" />
        <path
           d="m 171.33,273.807 h -65.533 v 4.441 h 65.533 z"
           style="fill:#e7e7e7;fill-opacity:1;fill-rule:nonzero;stroke:none"
           id="path1382" />
        <path
           d="m 152.473,297.579 h -30.979 v 4.441 h 30.979 z"
           style="fill:#e7e7e7;fill-opacity:1;fill-rule:nonzero;stroke:none"
           id="path1384" />
        <path
           d="m 276.458,285.693 h -30.979 v 4.441 h 30.979 z"
           style="fill:#e7e7e7;fill-opacity:1;fill-rule:nonzero;stroke:none"
           id="path1386" />
        <path
           d="M 266.065,297.579 H 161.484 v 4.441 h 104.581 z"
           style="fill:#e7e7e7;fill-opacity:1;fill-rule:nonzero;stroke:none"
           id="path1388" />
        <path
           d="M 210.377,261.921 H 105.796 v 4.441 h 104.581 z"
           style="fill:#e7e7e7;fill-opacity:1;fill-rule:nonzero;stroke:none"
           id="path1390" />
        <path
           d="m 342.753,309.465 h -83.904 v 4.441 h 83.904 z"
           style="fill:#e7e7e7;fill-opacity:1;fill-rule:nonzero;stroke:none"
           id="path1392" />
        <path
           d="m 252.2,309.465 h -52.127 v 4.441 H 252.2 Z"
           style="fill:#e7e7e7;fill-opacity:1;fill-rule:nonzero;stroke:none"
           id="path1394" />
        <path
           d="m 324.289,297.579 h -52.128 v 4.441 h 52.128 z"
           style="fill:#e7e7e7;fill-opacity:1;fill-rule:nonzero;stroke:none"
           id="path1396" />
        <path
           d="M 110.163,297.579 H 94.062 v 4.441 h 16.101 z"
           style="fill:#e7e7e7;fill-opacity:1;fill-rule:nonzero;stroke:none"
           id="path1398" />
        <path
           d="M 94.062,285.693 H 77.96 v 4.441 h 16.102 z"
           style="fill:#e7e7e7;fill-opacity:1;fill-rule:nonzero;stroke:none"
           id="path1400" />
        <path
           d="m 150.716,285.693 h -44.919 v 4.441 h 44.919 z"
           style="fill:#e7e7e7;fill-opacity:1;fill-rule:nonzero;stroke:none"
           id="path1402" />
        <path
           d="m 166.413,250.035 h -44.919 v 4.441 h 44.919 z"
           style="fill:#e7e7e7;fill-opacity:1;fill-rule:nonzero;stroke:none"
           id="path1404" />
        <path
           d="m 295.916,238.149 h -72.345 v 4.441 h 72.345 z"
           style="fill:#e7e7e7;fill-opacity:1;fill-rule:nonzero;stroke:none"
           id="path1406" />
        <path
           d="m 244.444,250.035 h -70.307 v 4.441 h 70.307 z"
           style="fill:#e7e7e7;fill-opacity:1;fill-rule:nonzero;stroke:none"
           id="path1408" />
        <path
           d="m 215.251,238.149 h -57.945 v 4.441 h 57.945 z"
           style="fill:#e7e7e7;fill-opacity:1;fill-rule:nonzero;stroke:none"
           id="path1410" />
        <path
           d="m 342.753,250.035 h -90.051 v 4.441 h 90.051 z"
           style="fill:#e7e7e7;fill-opacity:1;fill-rule:nonzero;stroke:none"
           id="path1412" />
        <path
           d="m 149.047,238.149 h -27.553 v 4.441 h 27.553 z"
           style="fill:#e7e7e7;fill-opacity:1;fill-rule:nonzero;stroke:none"
           id="path1414" />
        <path
           d="m 255.61,273.807 h -77.729 v 4.441 h 77.729 z"
           style="fill:#e7e7e7;fill-opacity:1;fill-rule:nonzero;stroke:none"
           id="path1416" />
        <path
           d="m 327.699,273.807 h -65.44 v 4.441 h 65.44 z"
           style="fill:#e7e7e7;fill-opacity:1;fill-rule:nonzero;stroke:none"
           id="path1418" />
        <path
           d="m 237.994,285.693 h -77.605 v 4.441 h 77.605 z"
           style="fill:#e7e7e7;fill-opacity:1;fill-rule:nonzero;stroke:none"
           id="path1420" />
        <path
           d="M 94.062,273.807 H 77.96 v 4.441 h 16.102 z"
           style="fill:#e7e7e7;fill-opacity:1;fill-rule:nonzero;stroke:none"
           id="path1422" />
        <path
           d="M 94.062,261.921 H 77.96 v 4.441 h 16.102 z"
           style="fill:#e7e7e7;fill-opacity:1;fill-rule:nonzero;stroke:none"
           id="path1424" />
        <path
           d="M 110.163,250.035 H 94.062 v 4.441 h 16.101 z"
           style="fill:#e7e7e7;fill-opacity:1;fill-rule:nonzero;stroke:none"
           id="path1426" />
        <path
           d="M 110.163,238.149 H 94.062 v 4.441 h 16.101 z"
           style="fill:#e7e7e7;fill-opacity:1;fill-rule:nonzero;stroke:none"
           id="path1428" />
      </g>
    </g>
    <text
       xml:space="preserve"
       transform="matrix(1,0,0,-1,77.2319,334.8545)"
       style="font-variant:normal;font-weight:normal;font-stretch:normal;font-size:22.1088px;font-family:'Courier Prime Code';-inkscape-font-specification:CourierPrimeCode-Regular;writing-mode:lr-tb;fill:#e1e1e1;fill-opacity:1;fill-rule:nonzero;stroke:none"
       id="text1432"><tspan
         x="0 13.26528 26.53056"
         y="0"
         sodipodi:role="line"
         id="tspan1430">&lt;/&gt;</tspan></text>
    <g
       id="g1434">
      <g
         id="g1436"
         clip-path="url(#clipPath1440)">
        <g
           id="g1442"
           transform="translate(39.9225,230.1794)">
          <path
             d="m 0,0 h 35.273 c 4.507,0 8.161,-3.654 8.161,-8.16 v -14.402 -5.036 -15.777 l -8.297,7.617 H 0 c -4.507,0 -8.16,3.654 -8.16,8.16 V -8.16 C -8.16,-3.654 -4.507,0 0,0"
             style="fill:#ffffff;fill-opacity:1;fill-rule:nonzero;stroke:none"
             id="path1444" />
        </g>
        <g
           id="g1446"
           transform="translate(39.9225,230.1794)">
          <path
             d="m 0,0 h 35.273 c 4.507,0 8.161,-3.654 8.161,-8.16 v -14.402 -5.036 -15.777 l -8.297,7.617 H 0 c -4.507,0 -8.16,3.654 -8.16,8.16 V -8.16 C -8.16,-3.654 -4.507,0 0,0 Z"
             style="fill:none;stroke:#ebebeb;stroke-width:1;stroke-linecap:butt;stroke-linejoin:miter;stroke-miterlimit:10;stroke-dasharray:none;stroke-opacity:1"
             id="path1448" />
        </g>
        <g
           id="g1450"
           transform="translate(65.631,211.652)">
          <path
             d="m 0,0 c 0,-1.959 1.588,-3.548 3.548,-3.548 1.959,0 3.548,1.589 3.548,3.548 0,1.96 -1.589,3.548 -3.548,3.548 C 1.588,3.548 0,1.96 0,0"
             style="fill:#ebebeb;fill-opacity:1;fill-rule:nonzero;stroke:none"
             id="path1452" />
        </g>
        <g
           id="g1454"
           transform="translate(53.2892,211.652)">
          <path
             d="m 0,0 c 0,-1.959 1.588,-3.548 3.548,-3.548 1.959,0 3.548,1.589 3.548,3.548 0,1.96 -1.589,3.548 -3.548,3.548 C 1.588,3.548 0,1.96 0,0"
             style="fill:#ebebeb;fill-opacity:1;fill-rule:nonzero;stroke:none"
             id="path1456" />
        </g>
        <g
           id="g1458"
           transform="translate(40.9474,211.652)">
          <path
             d="m 0,0 c 0,-1.959 1.588,-3.548 3.548,-3.548 1.959,0 3.548,1.589 3.548,3.548 0,1.96 -1.589,3.548 -3.548,3.548 C 1.588,3.548 0,1.96 0,0"
             style="fill:#ebebeb;fill-opacity:1;fill-rule:nonzero;stroke:none"
             id="path1460" />
        </g>
        <g
           id="g1462"
           transform="translate(408.1266,423.4509)">
          <path
             d="m 0,0 c 0,-4.153 -3.213,-7.555 -7.292,-7.856 v -0.022 h -44.621 c -5.115,0 -9.26,4.144 -9.26,9.259 0,4.823 3.686,8.788 8.395,9.221 0.266,8.381 7.143,15.096 15.59,15.096 6.724,0 12.456,-4.254 14.646,-10.217 1.246,0.629 2.649,0.979 4.141,0.979 4.922,0 8.949,-3.838 9.242,-8.687 0.415,0.07 0.844,0.105 1.281,0.105 C -3.528,7.878 0,4.35 0,0"
             style="fill:#f0f0f0;fill-opacity:1;fill-rule:nonzero;stroke:none"
             id="path1464" />
        </g>
        <g
           id="g1466"
           transform="translate(435.5856,214.0778)">
          <path
             d="m 0,0 h -38.362 c -3.881,0 -7.027,3.146 -7.027,7.026 V 29.05 c 0,3.881 3.146,7.026 7.027,7.026 H 0 c 3.88,0 7.026,-3.145 7.026,-7.026 V 7.026 C 7.026,3.146 3.88,0 0,0"
             style="fill:#f0f0f0;fill-opacity:1;fill-rule:nonzero;stroke:none"
             id="path1468" />
        </g>
      </g>
    </g>
    <text
       xml:space="preserve"
       transform="matrix(1,0,0,-1,398.833,227.2432)"
       style="font-variant:normal;font-weight:normal;font-stretch:normal;font-size:19.5095px;font-family:'Courier Prime Code';-inkscape-font-specification:CourierPrimeCode-Regular;writing-mode:lr-tb;fill:#ffffff;fill-opacity:1;fill-rule:nonzero;stroke:none"
       id="text1472"><tspan
         x="0 11.7057 23.4114"
         y="0"
         sodipodi:role="line"
         id="tspan1470">&lt;/&gt;</tspan></text>
    <text
       xml:space="preserve"
       transform="matrix(1,0,0,-1,369.7217,270.6348)"
       style="font-variant:normal;font-weight:normal;font-stretch:normal;font-size:23.3332px;font-family:'Courier Prime Code';-inkscape-font-specification:CourierPrimeCode-Regular;writing-mode:lr-tb;fill:#e7e7e7;fill-opacity:1;fill-rule:nonzero;stroke:none"
       id="text1476"><tspan
         x="0 13.99992"
         y="0"
         sodipodi:role="line"
         id="tspan1474">{}</tspan></text>
    <text
       xml:space="preserve"
       transform="matrix(1,0,0,-1,71.5225,432.3613)"
       style="font-variant:normal;font-weight:normal;font-stretch:normal;font-size:18.3195px;font-family:'Courier Prime Code';-inkscape-font-specification:CourierPrimeCode-Regular;writing-mode:lr-tb;fill:#e7e7e7;fill-opacity:1;fill-rule:nonzero;stroke:none"
       id="text1480"><tspan
         x="0 10.9917"
         y="0"
         sodipodi:role="line"
         id="tspan1478">{}</tspan></text>
    <g
       id="g1482">
      <g
         id="g1484"
         clip-path="url(#clipPath1488)">
        <g
           id="g1490"
           transform="translate(164.1876,403.2521)">
          <path
             d="m 0,0 c 0,-27.029 -23.922,-48.94 -53.431,-48.94 -29.509,0 -53.43,21.911 -53.43,48.94 0,27.028 23.921,48.939 53.43,48.939 C -23.922,48.939 0,27.028 0,0"
             style="fill:#f0f0f0;fill-opacity:1;fill-rule:nonzero;stroke:none"
             id="path1492" />
        </g>
        <g
           id="g1494"
           transform="translate(75.9811,92.7975)">
          <path
             d="m 0,0 h 319.308 c 19.306,14.537 35.484,32.753 47.972,54.753 31.446,55.396 37.15,129.822 9.613,193.799 -8.528,19.809 -22.856,46.714 -39.259,60.904 -22.496,19.461 -52.656,23.337 -74.348,21.024 -72.633,-7.743 -78.028,-74.83 -77.912,-93.123 0.116,-18.293 6.271,-39.334 -5.888,-53.147 -17.112,-19.443 -46.924,-21.327 -72.829,-18.152 -25.904,3.176 -52.633,9.859 -77.593,2.321 C -8.663,156.985 -37.734,108.434 -30.836,70.115 -26.324,45.049 -16.363,19.363 0,0"
             style="fill:#f0f0f0;fill-opacity:1;fill-rule:nonzero;stroke:none"
             id="path1496" />
        </g>
      </g>
    </g>
    <g
       id="g1498">
      <g
         id="g1500"
         clip-path="url(#clipPath1504)">
        <g
           id="g1506"
           transform="translate(243.07,341.3952)">
          <path
             d="m 0,0 h -106.855 c -4.59,0 -8.31,3.72 -8.31,8.31 v 77.643 c 0,4.589 3.72,8.31 8.31,8.31 H 0 c 4.589,0 8.31,-3.721 8.31,-8.31 V 8.31 C 8.31,3.72 4.589,0 0,0"
             style="fill:#455a64;fill-opacity:1;fill-rule:nonzero;stroke:none"
             id="path1508" />
        </g>
      </g>
    </g>
    <text
       xml:space="preserve"
       transform="matrix(1,0,0,-1,210.2979,410.7573)"
       style="font-variant:normal;font-weight:normal;font-stretch:normal;font-size:14.8515px;font-family:'Courier Prime Code';-inkscape-font-specification:CourierPrimeCode-Regular;writing-mode:lr-tb;fill:#fafafa;fill-opacity:1;fill-rule:nonzero;stroke:none"
       id="text1512"><tspan
         x="0 8.9109001 17.8218"
         y="0"
         sodipodi:role="line"
         id="tspan1510">&lt;/&gt;</tspan></text>
    <g
       id="g1514">
      <g
         id="g1516"
         clip-path="url(#clipPath1520)">
        <g
           id="g1522"
           transform="translate(165.2335,413.8942)">
          <path
             d="m 0,0 h 28.72 4.148 c 0.965,0 0.967,1.5 0,1.5 H 4.148 0 C -0.965,1.5 -0.967,0 0,0"
             style="fill:#fafafa;fill-opacity:1;fill-rule:nonzero;stroke:none"
             id="path1524" />
        </g>
        <g
           id="g1526"
           transform="translate(139.3527,401.0256)">
          <path
             d="m 0,0 h 9.444 22.688 27.592 23.754 7.863 c 1.219,0 2.492,-0.106 3.708,0 0.055,0.005 0.113,0 0.168,0 0.965,0 0.967,1.5 0,1.5 H 85.773 63.085 35.493 11.74 3.875 C 2.657,1.5 1.384,1.606 0.168,1.5 0.113,1.495 0.056,1.5 0,1.5 -0.965,1.5 -0.967,0 0,0"
             style="fill:#fafafa;fill-opacity:1;fill-rule:nonzero;stroke:none"
             id="path1528" />
        </g>
        <g
           id="g1530"
           transform="translate(223.754,385.8766)">
          <path
             d="m 0,0 h 9.476 1.34 c 0.965,0 0.967,1.5 0,1.5 H 1.34 0 C -0.965,1.5 -0.967,0 0,0"
             style="fill:#fafafa;fill-opacity:1;fill-rule:nonzero;stroke:none"
             id="path1532" />
        </g>
        <g
           id="g1534"
           transform="translate(166.3922,385.8766)">
          <path
             d="m 0,0 h 15.424 24.471 5.686 c 0.964,0 0.966,1.5 0,1.5 H 30.156 5.686 0 C -0.965,1.5 -0.967,0 0,0"
             style="fill:#fafafa;fill-opacity:1;fill-rule:nonzero;stroke:none"
             id="path1536" />
        </g>
        <g
           id="g1538"
           transform="translate(139.3527,373.3332)">
          <path
             d="m 0,0 h 9.444 22.688 27.592 23.754 7.863 c 1.219,0 2.492,-0.106 3.708,0 0.055,0.005 0.113,0 0.168,0 0.965,0 0.967,1.5 0,1.5 H 85.773 63.085 35.493 11.74 3.875 C 2.657,1.5 1.384,1.606 0.168,1.5 0.113,1.496 0.056,1.5 0,1.5 -0.965,1.5 -0.967,0 0,0"
             style="fill:#fafafa;fill-opacity:1;fill-rule:nonzero;stroke:none"
             id="path1540" />
        </g>
        <g
           id="g1542"
           transform="translate(206.7579,359.4875)">
          <path
             d="m 0,0 h 24.321 3.491 c 0.965,0 0.967,1.5 0,1.5 H 3.491 0 C -0.965,1.5 -0.967,0 0,0"
             style="fill:#fafafa;fill-opacity:1;fill-rule:nonzero;stroke:none"
             id="path1544" />
        </g>
        <g
           id="g1546"
           transform="translate(166.3922,359.4875)">
          <path
             d="m 0,0 h 27.784 3.925 c 0.966,0 0.967,1.5 0,1.5 H 3.925 0 C -0.965,1.5 -0.967,0 0,0"
             style="fill:#fafafa;fill-opacity:1;fill-rule:nonzero;stroke:none"
             id="path1548" />
        </g>
        <path
           d="M 252.684,287.092 H 208.76801 180.644 v -40.537 h 72.04 z"
           style="fill:#ffd42a;fill-opacity:1;fill-rule:nonzero;stroke:#f1ad0c;stroke-width:1;stroke-linecap:butt;stroke-linejoin:miter;stroke-miterlimit:10;stroke-dasharray:none;stroke-opacity:1"
           id="path1550"
           sodipodi:nodetypes="cccccc" />
        <g
           id="g1552"
           transform="translate(187.4962,283.3903)"
           style="fill:#fff6d5">
          <path
             d="m 0,0 c 0,-1.015 -0.822,-1.837 -1.837,-1.837 -1.015,0 -1.837,0.822 -1.837,1.837 0,1.014 0.822,1.837 1.837,1.837 C -0.822,1.837 0,1.014 0,0"
             style="fill:#fff6d5;fill-opacity:1;fill-rule:nonzero;stroke:none"
             id="path1554" />
        </g>
        <g
           id="g1556"
           transform="translate(194.9977,283.3903)"
           style="fill:#fff6d5">
          <path
             d="m 0,0 c 0,-1.015 -0.822,-1.837 -1.837,-1.837 -1.015,0 -1.837,0.822 -1.837,1.837 0,1.014 0.822,1.837 1.837,1.837 C -0.822,1.837 0,1.014 0,0"
             style="fill:#fff6d5;fill-opacity:1;fill-rule:nonzero;stroke:none"
             id="path1558" />
        </g>
        <g
           id="g1560"
           transform="translate(202.4992,283.3903)"
           style="fill:#fff6d5">
          <path
             d="m 0,0 c 0,-1.015 -0.822,-1.837 -1.837,-1.837 -1.015,0 -1.837,0.822 -1.837,1.837 0,1.014 0.822,1.837 1.837,1.837 C -0.822,1.837 0,1.014 0,0"
             style="fill:#fff6d5;fill-opacity:1;fill-rule:nonzero;stroke:none"
             id="path1562" />
        </g>
      </g>
    </g>
    <text
       xml:space="preserve"
       transform="matrix(1,0,0,-1,190.812,259.0264)"
       style="font-variant:normal;font-weight:normal;font-stretch:normal;font-size:22.3134px;font-family:'Courier Prime Code';-inkscape-font-specification:CourierPrimeCode-Regular;writing-mode:lr-tb;fill:#f9f9f9;fill-opacity:1;fill-rule:nonzero;stroke:none"
       id="text1566"><tspan
         x="0 13.38804 26.776079 40.16412"
         y="0"
         sodipodi:role="line"
         id="tspan1564">HTML</tspan></text>
    <g
       id="g1568">
      <g
         id="g1570"
         clip-path="url(#clipPath1574)">
        <g
           id="g1576"
           transform="translate(180.6447,279.7936)">
          <path
             d="M 0,0 H 72.04"
             style="fill:#ff6600;stroke:#f1b900;stroke-width:1;stroke-linecap:butt;stroke-linejoin:miter;stroke-miterlimit:10;stroke-dasharray:none;stroke-opacity:1"
             id="path1578" />
        </g>
        <path
           d="M 139.549,420.586 H 90.133 v -33.334 h 49.416 z"
           style="fill:#ffd42a;fill-opacity:1;fill-rule:nonzero;stroke:#f18e00;stroke-width:1;stroke-linecap:butt;stroke-linejoin:miter;stroke-miterlimit:10;stroke-dasharray:none;stroke-opacity:1"
           id="path1580" />
        <g
           id="g1582"
           transform="translate(95.7677,417.5412)">
          <path
             d="m 0,0 c 0,-0.834 -0.676,-1.51 -1.511,-1.51 -0.834,0 -1.51,0.676 -1.51,1.51 0,0.834 0.676,1.511 1.51,1.511 C -0.676,1.511 0,0.834 0,0"
             style="fill:#e3dedb;fill-opacity:1;fill-rule:nonzero;stroke:none"
             id="path1584" />
        </g>
        <g
           id="g1586"
           transform="translate(101.9362,417.5412)">
          <path
             d="m 0,0 c 0,-0.834 -0.676,-1.51 -1.511,-1.51 -0.834,0 -1.51,0.676 -1.51,1.51 0,0.834 0.676,1.511 1.51,1.511 C -0.676,1.511 0,0.834 0,0"
             style="fill:#e3dedb;fill-opacity:1;fill-rule:nonzero;stroke:none"
             id="path1588" />
        </g>
        <g
           id="g1590"
           transform="translate(108.1046,417.5412)">
          <path
             d="m 0,0 c 0,-0.834 -0.676,-1.51 -1.511,-1.51 -0.834,0 -1.51,0.676 -1.51,1.51 0,0.834 0.676,1.511 1.51,1.511 C -0.676,1.511 0,0.834 0,0"
             style="fill:#e3dedb;fill-opacity:1;fill-rule:nonzero;stroke:none"
             id="path1592" />
        </g>
      </g>
    </g>
    <text
       xml:space="preserve"
       transform="matrix(1,0,0,-1,98.4937,395.8633)"
       style="font-variant:normal;font-weight:normal;font-stretch:normal;font-size:18.3482px;font-family:'Courier Prime Code';-inkscape-font-specification:CourierPrimeCode-Regular;writing-mode:lr-tb;fill:#e3dedb;fill-opacity:1;fill-rule:nonzero;stroke:none"
       id="text1596"><tspan
         x="0 11.00892 22.017839"
         y="0"
         sodipodi:role="line"
         id="tspan1594">PHP</tspan></text>
    <g
       id="g1598">
      <g
         id="g1600"
         clip-path="url(#clipPath1604)">
        <g
           id="g1606"
           transform="translate(90.1334,414.5837)">
          <path
             d="M 0,0 H 49.416"
             style="fill:none;stroke:#f19d0b;stroke-width:1;stroke-linecap:butt;stroke-linejoin:miter;stroke-miterlimit:10;stroke-dasharray:none;stroke-opacity:1"
             id="path1608" />
        </g>
        <g
           id="g1610"
           transform="translate(468.0865,371.5734)"
           style="fill:#ffcc00">
          <path
             d="M 0,0 H -95.565 V -60.357 H 0"
             style="fill:#ffcc00;fill-opacity:1;fill-rule:nonzero;stroke:none"
             id="path1612" />
        </g>
        <path
           d="m 468.087,360.045 h -95.565 v 11.528 h 95.565 z"
           style="fill:#d4aa00;fill-opacity:1;fill-rule:nonzero;stroke:none"
           id="path1614" />
        <g
           id="g1616"
           style="fill:#f4e3d7"
           transform="matrix(1.0032538,0,0,1.0032538,-0.8634268,-1.1337749)">
          <g
             id="g1618"
             style="fill:#f4e3d7" />
          <g
             id="g1628"
             style="fill:#f4e3d7">
            <g
               clip-path="url(#clipPath1622)"
               opacity="0.199997"
               id="g1626"
               style="fill:#f4e3d7">
              <path
                 d="m 468.087,360.045 h -95.565 v 11.528 h 95.565 z"
                 style="fill:#f4e3d7;fill-opacity:1;fill-rule:nonzero;stroke:none"
                 id="path1624" />
            </g>
          </g>
        </g>
        <g
           id="g1630"
           transform="translate(383.3434,365.7253)">
          <path
             d="m 0,0 c 0,-1.602 -1.299,-2.901 -2.901,-2.901 -1.603,0 -2.902,1.299 -2.902,2.901 0,1.603 1.299,2.902 2.902,2.902 C -1.299,2.902 0,1.603 0,0"
             style="fill:#e1e1e1;fill-opacity:1;fill-rule:nonzero;stroke:none"
             id="path1632" />
        </g>
        <g
           id="g1634"
           transform="translate(395.192,365.7253)">
          <path
             d="m 0,0 c 0,-1.602 -1.3,-2.901 -2.902,-2.901 -1.603,0 -2.902,1.299 -2.902,2.901 0,1.603 1.299,2.902 2.902,2.902 C -1.3,2.902 0,1.603 0,0"
             style="fill:#f0f0f0;fill-opacity:1;fill-rule:nonzero;stroke:none"
             id="path1636" />
        </g>
        <g
           id="g1638"
           transform="translate(407.0397,365.7253)">
          <path
             d="m 0,0 c 0,-1.602 -1.299,-2.901 -2.901,-2.901 -1.603,0 -2.902,1.299 -2.902,2.901 0,1.603 1.299,2.902 2.902,2.902 C -1.299,2.902 0,1.603 0,0"
             style="fill:#fafafa;fill-opacity:1;fill-rule:nonzero;stroke:none"
             id="path1640" />
        </g>
      </g>
    </g>
    <text
       xml:space="preserve"
       transform="scale(1,-1)"
       style="font-variant:normal;font-weight:normal;font-stretch:normal;font-size:35.2426px;font-family:'Courier Prime Code';-inkscape-font-specification:CourierPrimeCode-Regular;writing-mode:lr-tb;fill:#fafafa;fill-opacity:1;fill-rule:nonzero;stroke:none"
       id="text1644"
       x="387.33682"
       y="-325.37894"><tspan
         x="387.33682 408.48239 429.62793"
         y="-325.37894"
         sodipodi:role="line"
         id="tspan1642">C++</tspan></text>
    <g
       id="g1646">
      <g
         id="g1648"
         clip-path="url(#clipPath1652)">
        <g
           id="g1654"
           transform="translate(122.0592,330.3244)">
          <path
             d="M 0,0 H -79.112 V -49.965 H 0"
             style="fill:#ffcc00;fill-opacity:1;fill-rule:nonzero;stroke:none"
             id="path1656" />
        </g>
        <path
           d="M 122.059,320.781 H 42.947 v 9.543 h 79.112 z"
           style="fill:#d4aa00;fill-opacity:1;fill-rule:nonzero;stroke:none"
           id="path1658" />
        <g
           id="g1660"
           style="fill:#ffccaa"
           transform="translate(-24.162658,-3.8868161)">
          <g
             id="g1662"
             style="fill:#ffccaa" />
          <g
             id="g1672"
             style="fill:#ffccaa"
             transform="translate(23.787315,3.8868161)">
            <g
               clip-path="url(#clipPath1666)"
               opacity="0.199997"
               id="g1670"
               style="fill:#ffccaa">
              <path
                 d="M 122.059,320.781 H 42.947 v 9.543 h 79.112 z"
                 style="fill:#ffccaa;fill-opacity:1;fill-rule:nonzero;stroke:none"
                 id="path1668" />
            </g>
          </g>
        </g>
        <g
           id="g1674"
           transform="translate(51.9064,325.4836)">
          <path
             d="m 0,0 c 0,-1.327 -1.076,-2.402 -2.402,-2.402 -1.327,0 -2.402,1.075 -2.402,2.402 0,1.327 1.075,2.402 2.402,2.402 C -1.076,2.402 0,1.327 0,0"
             style="fill:#e1e1e1;fill-opacity:1;fill-rule:nonzero;stroke:none"
             id="path1676" />
        </g>
        <g
           id="g1678"
           transform="translate(61.7145,325.4836)">
          <path
             d="m 0,0 c 0,-1.327 -1.076,-2.402 -2.402,-2.402 -1.327,0 -2.402,1.075 -2.402,2.402 0,1.327 1.075,2.402 2.402,2.402 C -1.076,2.402 0,1.327 0,0"
             style="fill:#f0f0f0;fill-opacity:1;fill-rule:nonzero;stroke:none"
             id="path1680" />
        </g>
        <g
           id="g1682"
           transform="translate(71.5226,325.4836)">
          <path
             d="m 0,0 c 0,-1.327 -1.075,-2.402 -2.402,-2.402 -1.327,0 -2.402,1.075 -2.402,2.402 0,1.327 1.075,2.402 2.402,2.402 C -1.075,2.402 0,1.327 0,0"
             style="fill:#fafafa;fill-opacity:1;fill-rule:nonzero;stroke:none"
             id="path1684" />
        </g>
      </g>
    </g>
    <text
       xml:space="preserve"
       transform="matrix(1,0,0,-1,56.2412,293.627)"
       style="font-variant:normal;font-weight:normal;font-stretch:normal;font-size:29.175px;font-family:'Courier Prime Code';-inkscape-font-specification:CourierPrimeCode-Regular;writing-mode:lr-tb;fill:#fafafa;fill-opacity:1;fill-rule:nonzero;stroke:none"
       id="text1688"><tspan
         x="0 17.504999 35.009998"
         y="0"
         sodipodi:role="line"
         id="tspan1686">CSS</tspan></text>
    <g
       id="g1690"
       transform="translate(28.8336,92.7975)">
      <path
         d="M 0,0 H 442.333"
         style="fill:none;stroke:#1a2e35;stroke-width:1;stroke-linecap:butt;stroke-linejoin:miter;stroke-miterlimit:10;stroke-dasharray:none;stroke-opacity:1"
         id="path1692" />
    </g>
    <g
       id="g1694">
      <g
         id="g1696"
         clip-path="url(#clipPath1700)">
        <g
           id="g1702"
           transform="translate(197.8048,232.279)">
          <path
             d="m 0,0 c -1.995,3.216 -3.325,9.419 -2.66,15.404 0.665,5.986 0.887,15.075 -6.651,15.518 -7.536,0.443 -10.086,-14.741 -10.529,-17.956 -0.443,-3.214 -13.854,-5.209 -24.606,-1.862 -10.751,3.348 -30.812,7.183 -39.65,4.965 -8.838,-2.216 -5.558,-9.929 -5.558,-9.929 l 0.016,-0.009 c -6.096,-4.288 0.598,-9.717 0.598,-9.717 -6.207,-5.615 0.69,-11.547 5.074,-12.128 -0.12,-0.557 -0.163,-1.139 -0.049,-1.764 1.182,-6.501 28.078,-4.137 43.449,-10.935 15.369,-6.798 26.009,-35.469 26.009,-35.469 l 32.07,38.498 C 17.513,-25.384 1.995,-3.216 0,0"
             style="fill:#ffffff;fill-opacity:1;fill-rule:nonzero;stroke:none"
             id="path1704" />
        </g>
        <g
           id="g1706"
           transform="translate(145.7111,231.6491)">
          <path
             d="m 0,0 c 0,0 -30.739,2.66 -36.946,-2.956 -6.207,-5.615 0.69,-11.547 5.074,-12.128"
             style="fill:none;stroke:#1a2e35;stroke-width:1;stroke-linecap:butt;stroke-linejoin:miter;stroke-miterlimit:10;stroke-dasharray:none;stroke-opacity:1"
             id="path1708" />
        </g>
        <g
           id="g1710"
           transform="translate(145.7111,238.447)">
          <path
             d="M 0,0 C 0,0 -23.202,6.207 -34.729,1.479 -45.425,-2.91 -36.946,-9.754 -36.946,-9.754"
             style="fill:none;stroke:#1a2e35;stroke-width:1;stroke-linecap:butt;stroke-linejoin:miter;stroke-miterlimit:10;stroke-dasharray:none;stroke-opacity:1"
             id="path1712" />
        </g>
        <g
           id="g1714"
           transform="translate(108.1505,238.4186)">
          <path
             d="m 0,0 c 0,0 -3.279,7.713 5.558,9.93 8.838,2.217 28.899,-1.617 39.65,-4.965 10.751,-3.348 24.163,-1.353 24.606,1.861 0.444,3.215 2.993,18.4 10.53,17.956 7.537,-0.443 7.315,-9.532 6.65,-15.517 -0.665,-5.986 0.665,-12.189 2.66,-15.405 1.995,-3.215 17.513,-25.383 17.513,-25.383 L 75.098,-70.021 c 0,0 -10.641,28.67 -26.011,35.468 -15.369,6.798 -42.265,4.434 -43.448,10.936 -1.182,6.503 10.64,9.458 28.67,7.389"
             style="fill:none;stroke:#1a2e35;stroke-width:1;stroke-linecap:butt;stroke-linejoin:miter;stroke-miterlimit:10;stroke-dasharray:none;stroke-opacity:1"
             id="path1716" />
        </g>
        <g
           id="g1718"
           transform="translate(170.5177,181.9772)">
          <path
             d="m 0,0 48.327,27.857 c 0,0 41.867,-75.621 95.856,-95.112 l -64.31,-24.278 -51.609,3.312 C 28.264,-88.221 7.741,-44.93 0,0"
             style="fill:#f181a9;fill-opacity:1;fill-rule:nonzero;stroke:none"
             id="path1720" />
        </g>
        <g
           id="g1722">
          <g
             id="g1724" />
          <g
             id="g1736">
            <g
               clip-path="url(#clipPath1728)"
               opacity="0.300003"
               id="g1734">
              <g
                 transform="translate(170.5177,181.9772)"
                 id="g1732">
                <path
                   d="m 0,0 48.327,27.857 c 0,0 41.867,-75.621 95.856,-95.112 l -64.31,-24.278 -51.609,3.312 C 28.264,-88.221 7.741,-44.93 0,0"
                   style="fill:#ffff00;fill-opacity:1;fill-rule:nonzero;stroke:none"
                   id="path1730" />
              </g>
            </g>
          </g>
        </g>
        <g
           id="g1738"
           transform="translate(314.2418,114.8962)">
          <path
             d="m 0,0 c -0.334,0.122 -0.667,0.251 -1,0.378 v -1.103 l 1,0.377 z"
             style="fill:#fafafa;fill-opacity:1;fill-rule:nonzero;stroke:none"
             id="path1740" />
        </g>
        <path
           d="m 273.302,102.211 h -18.971 v 19.897 h 18.971 z m -19.97,20.897 h -18.969 v 19.898 h 18.969 z m 0,-20.897 h -18.969 v 19.897 h 18.969 z m -19.97,62.694 h -18.97 v 19.897 h 18.97 z m 0,-20.898 h -18.97 v 19.898 h 18.97 z m 0,-20.899 h -18.97 v 19.898 h 18.97 z m 0,-20.897 h -18.97 v 19.897 h 18.97 z m -19.97,62.694 h -18.97 v 19.897 h 18.97 z m 0,-20.898 h -18.97 v 19.898 h 18.97 z m 0,-20.899 h -18.97 v 19.898 h 18.97 z m 79.88,-1 v -15.475 l 1,0.376 v 15.099 h 4.665 c -0.575,0.329 -1.15,0.66 -1.722,1 h -2.943 v 1.814 c -0.334,0.211 -0.668,0.423 -1,0.638 v -2.452 h -18.97 v 17.004 c -0.335,0.297 -0.668,0.595 -1,0.894 v -17.898 h -18.97 v 19.899 h 16.778 c -0.358,0.332 -0.716,0.666 -1.071,1 h -15.707 v 16.31 c -0.334,0.38 -0.67,0.76 -1,1.14 v -17.45 h -18.97 v 19.898 h 16.869 c -0.284,0.334 -0.564,0.667 -0.844,1 h -16.025 v 19.897 h 0.632 c -0.558,0.783 -1.099,1.551 -1.632,2.31 v -1.31 h -18.97 v 19.899 h 6.862 c -0.214,0.356 -0.41,0.685 -0.596,1 h -6.266 v 0.566 l -2.718,-1.566 h 1.718 v -19.899 h -18.969 v 9.955 l -1,-0.577 v -9.378 h -16.269 l -1.734,-1 h 18.003 v -19.897 h -18.97 v 19.34 l -1,-0.576 v -16.232 c 0.324,-1.412 0.657,-2.818 1,-4.216 v 0.684 h 18.97 v -19.898 h -13.662 c 0.102,-0.334 0.205,-0.668 0.307,-1 h 13.355 v -19.899 h -6.639 c 0.122,-0.336 0.245,-0.669 0.367,-1 h 6.272 v -16.064 c 0.346,-0.836 0.679,-1.634 1,-2.395 v 18.459 h 18.969 v -19.897 h -18.361 c 0.146,-0.343 0.289,-0.677 0.429,-1 h 17.932 v -8.392 l 1,-0.064 v 8.456 h 18.97 v -9.674 l 1,-0.065 v 9.739 h 18.97 v -9.657 l 1,0.377 v 9.28 h 18.97 v -2.118 l 1,0.377 v 1.741 h 4.609 l 2.649,1 h -7.258 v 19.897 z"
           style="fill:#e3dbdb;fill-opacity:1;fill-rule:nonzero;stroke:none"
           id="path1742" />
        <g
           id="g1744"
           transform="translate(170.5177,181.9772)">
          <path
             d="m 0,0 48.327,27.857 c 0,0 41.867,-75.621 95.856,-95.112 l -64.31,-24.278 -51.609,3.312 C 28.264,-88.221 7.741,-44.93 0,0 Z"
             style="fill:none;stroke:#1a2e35;stroke-width:1;stroke-linecap:butt;stroke-linejoin:miter;stroke-miterlimit:10;stroke-dasharray:none;stroke-opacity:1"
             id="path1746" />
        </g>
        <g
           id="g1748"
           transform="translate(174.7848,162.6013)">
          <path
             d="M 0,0 55.017,29.03"
             style="fill:none;stroke:#1a2e35;stroke-width:1;stroke-linecap:butt;stroke-linejoin:miter;stroke-miterlimit:10;stroke-dasharray:none;stroke-opacity:1"
             id="path1750" />
        </g>
        <g
           id="g1752"
           transform="translate(220.7824,196.1188)">
          <path
             d="m 0,0 c 0,-2.274 -1.844,-4.118 -4.118,-4.118 -2.274,0 -4.118,1.844 -4.118,4.118 0,2.274 1.844,4.118 4.118,4.118 C -1.844,4.118 0,2.274 0,0"
             style="fill:#1a2e35;fill-opacity:1;fill-rule:nonzero;stroke:none"
             id="path1754" />
        </g>
        <g
           id="g1756"
           transform="translate(375.0143,165.5837)">
          <path
             d="m 0,0 c 0,0 12.892,-33.998 -34.419,-46.031 -47.31,-12.032 -103.003,-9.933 -103.003,-9.933 0,0 -5.659,-0.077 -5.319,14.752 0.339,14.83 -0.332,44.124 18.721,76.492 19.052,32.368 30.904,44.21 40.563,47.902 3.36,1.285 26.683,3.229 39.567,-4.231 C -19.74,64.969 -1.095,32.155 0,0"
             style="fill:#f181a9;fill-opacity:1;fill-rule:nonzero;stroke:none"
             id="path1758" />
        </g>
        <g
           id="g1760">
          <g
             id="g1762" />
          <g
             id="g1774"
             style="fill:#ff6600">
            <g
               clip-path="url(#clipPath1766)"
               opacity="0.300003"
               id="g1772"
               style="fill:#ff6600">
              <g
                 transform="translate(375.0143,165.5837)"
                 id="g1770"
                 style="fill:#ff6600">
                <path
                   d="m 0,0 c 0,0 12.892,-33.998 -34.419,-46.031 -47.31,-12.032 -103.003,-9.933 -103.003,-9.933 0,0 -5.659,-0.077 -5.319,14.752 0.339,14.83 -0.332,44.124 18.721,76.492 19.052,32.368 30.904,44.21 40.563,47.902 3.36,1.285 26.683,3.229 39.567,-4.231 C -19.74,64.969 -1.095,32.155 0,0"
                   style="fill:#ffff00;fill-opacity:1;fill-rule:nonzero;stroke:none"
                   id="path1768" />
              </g>
            </g>
          </g>
        </g>
        <path
           d="m 359.237,189.77 h -18.97 v 19.897 h 18.97 z m 0,-20.898 h -18.97 v 19.898 h 18.97 z m 0,-20.899 h -18.97 v 19.898 h 18.97 z m 0,-20.897 h -18.97 v 19.897 h 18.97 z m -19.97,83.592 h -18.97 v 19.898 h 18.97 z m 0,-20.898 h -18.97 v 19.897 h 18.97 z m 0,-20.898 h -18.97 v 19.898 h 18.97 z m 0,-20.899 h -18.97 v 19.898 h 18.97 z m 0,-20.897 h -18.97 v 19.897 h 18.97 z m -19.97,83.592 h -18.97 v 19.898 h 18.97 z m 0,-20.898 h -18.97 v 19.897 h 18.97 z m 0,-20.898 h -18.97 v 19.898 h 18.97 z m 0,-20.899 h -18.97 v 19.898 h 18.97 z m 0,-20.897 h -18.97 v 19.897 h 18.97 z m -19.969,83.592 h -18.97 v 19.898 h 18.97 z m 0,-20.898 h -18.97 v 19.897 h 18.97 z m 0,-20.898 h -18.97 v 19.898 h 18.97 z m 0,-20.899 h -18.97 v 19.898 h 18.97 z m 0,-20.897 h -18.97 v 19.897 h 18.97 z m -19.97,62.694 h -18.971 v 19.897 h 18.971 z m 0,-20.898 h -18.971 v 19.898 h 18.971 z m 0,-20.899 h -18.971 v 19.898 h 18.971 z m 0,-20.897 h -18.971 v 19.897 h 18.971 z m -19.971,20.897 h -18.969 v 19.898 h 18.969 z m 0,-20.897 h -18.969 v 19.897 h 18.969 z m 100.85,19.897 h 15.278 c 0.092,0.335 0.178,0.669 0.256,1 h -15.534 v 19.899 h 14.661 c -0.019,0.333 -0.036,0.667 -0.06,1 h -14.601 v 19.898 h 11.06 c -0.094,0.333 -0.185,0.668 -0.284,1 h -10.776 v 19.898 h 2.672 c -0.178,0.336 -0.361,0.667 -0.541,1 h -2.131 v 3.761 c -0.326,0.547 -0.665,1.084 -1,1.623 v -5.384 h -18.97 v 19.898 h 7.98 c -0.313,0.338 -0.63,0.668 -0.947,1 h -7.033 v 6.569 c -0.331,0.274 -0.666,0.54 -1,0.806 v -7.375 h -18.97 v 16.886 c -0.332,0.072 -0.666,0.139 -1,0.205 v -17.091 h -18.969 v 18.324 c -0.34,-0.016 -0.674,-0.033 -1,-0.053 v -18.271 h -18.97 v 9.759 c -0.33,-0.306 -0.663,-0.619 -1,-0.944 v -8.815 h -7.901 c -0.264,-0.328 -0.528,-0.66 -0.794,-1 h 8.695 v -19.898 h -18.971 v 5.403 c -0.332,-0.509 -0.663,-1.014 -1,-1.536 v -3.867 h -2.45 c -0.209,-0.334 -0.415,-0.661 -0.626,-1 h 3.076 V 189.77 H 245.15 c -0.156,-0.333 -0.319,-0.668 -0.471,-1 h 14.708 v -19.898 h -18.969 v 9.41 c -0.348,-0.976 -0.682,-1.945 -1,-2.909 v -6.501 h -1.966 c -0.092,-0.336 -0.175,-0.666 -0.263,-1 h 2.229 v -19.899 h -5.938 c -0.038,-0.334 -0.077,-0.669 -0.112,-1 h 6.05 v -19.897 h -7.093 c -0.006,-0.34 -0.012,-0.673 -0.018,-1 h 7.111 v -16.508 c 0.298,-0.007 0.634,-0.015 1,-0.021 v 16.529 h 18.969 V 109.63 c 0.329,0.007 0.665,0.017 1,0.026 v 16.42 h 18.971 v -15.539 c 0.332,0.021 0.666,0.044 1,0.067 v 15.472 h 18.97 v -13.771 c 0.333,0.037 0.666,0.075 1,0.113 v 13.658 h 18.969 v -10.979 c 0.333,0.057 0.667,0.112 1,0.169 v 10.81 h 18.97 v -6.854 c 0.333,0.082 0.667,0.165 1,0.249 v 6.605 h 17.456 c 0.875,0.483 1.715,0.976 2.514,1.48 z"
           style="fill:#e3dbdb;fill-opacity:1;fill-rule:nonzero;stroke:none"
           id="path1776" />
        <g
           id="g1778"
           transform="translate(288.0905,248.7653)">
          <path
             d="M 0,0 C 0,0 -65.085,-55.194 -54.693,-136.869"
             style="fill:none;stroke:#1a2e35;stroke-width:1;stroke-linecap:butt;stroke-linejoin:miter;stroke-miterlimit:10;stroke-dasharray:none;stroke-opacity:1"
             id="path1780" />
        </g>
        <g
           id="g1782"
           transform="translate(332.8258,130.1686)">
          <path
             d="m 0,0 3.711,-51.747 -61.631,6.157 c 0,0 -5.955,1.839 -10.641,-2.753 -4.686,-4.593 -4.6,-7.062 -4.969,-8.633 -0.368,-1.57 -1.748,-7.414 -4.48,-10.483 -2.73,-3.069 -5.004,-2.957 -6.966,-0.963 l -1.961,1.995 c 0,0 -0.772,0.399 -1.822,-0.63 -1.049,-1.028 -3.76,-2.23 -5.252,-0.18 -1.493,2.05 -1.553,1.813 -1.553,1.813 0,0 -0.469,0.868 -1.32,0.027 -0.852,-0.841 -4.591,-2.276 -6.527,0.035 -1.935,2.309 -2.708,3.853 -2.708,3.853 0,0 -0.571,0.195 -1.727,-0.26 -1.156,-0.453 -5.908,-1.596 -8.514,4.026 -2.606,5.622 -1.032,14.147 0,19.74 1.031,5.593 5.816,17.721 10.157,22.625 4.341,4.904 12.544,10.583 21.121,12.006 8.577,1.423 32.446,2.383 42.515,2.626 C -32.498,-0.503 0,0 0,0"
             style="fill:#ffffff;fill-opacity:1;fill-rule:nonzero;stroke:none"
             id="path1784" />
        </g>
        <g
           id="g1786"
           transform="translate(254.8268,99.7975)">
          <path
             d="m 0,0 c 0,0 -9.035,-15.933 -10.674,-24.686 -1.639,-8.752 3.307,-15.024 6.165,-14.835 2.859,0.191 6.896,3.138 8.67,11.632 1.775,8.495 7.539,12.845 11.767,12.933 4.226,0.089 68.974,-6.756 68.974,-6.756"
             style="fill:none;stroke:#1a2e35;stroke-width:1;stroke-linecap:butt;stroke-linejoin:miter;stroke-miterlimit:10;stroke-dasharray:none;stroke-opacity:1"
             id="path1788" />
        </g>
        <g
           id="g1790"
           transform="translate(243.528,101.904)">
          <path
             d="m 0,0 c 0,0 -7.451,-17.071 -8.175,-26 -0.724,-8.928 3.347,-13.853 5.305,-14.137 1.958,-0.284 4.891,2.574 4.891,2.574"
             style="fill:none;stroke:#1a2e35;stroke-width:1;stroke-linecap:butt;stroke-linejoin:miter;stroke-miterlimit:10;stroke-dasharray:none;stroke-opacity:1"
             id="path1792" />
        </g>
        <g
           id="g1794"
           transform="translate(233.6373,108.2028)">
          <path
             d="m 0,0 c 0,0 -8.121,-16.109 -8.642,-25.424 -0.522,-9.314 1.308,-15.912 4.871,-18.309 3.564,-2.398 7.134,1.125 7.134,1.125"
             style="fill:none;stroke:#1a2e35;stroke-width:1;stroke-linecap:butt;stroke-linejoin:miter;stroke-miterlimit:10;stroke-dasharray:none;stroke-opacity:1"
             id="path1796" />
        </g>
        <g
           id="g1798"
           transform="translate(334.4938,130.1833)">
          <path
             d="m 0,0 c 0,0 -61.555,-0.47 -81.484,-2.578 -19.929,-2.108 -28.484,-13.022 -33.002,-24.11 -4.517,-11.09 -6.033,-25.687 -3.392,-30.715 4.532,-8.627 9.682,-3.451 9.682,-3.451"
             style="fill:none;stroke:#1a2e35;stroke-width:1;stroke-linecap:butt;stroke-linejoin:miter;stroke-miterlimit:10;stroke-dasharray:none;stroke-opacity:1"
             id="path1800" />
        </g>
        <g
           id="g1802"
           transform="translate(339.359,200.237)">
          <path
             d="m 0,0 c 0,0 34.633,-30.418 29.795,-50.098 -4.837,-19.68 -83.904,-17.78 -83.904,-17.78 v -55.961 c 0,0 34.682,0.777 64.404,-3.144 34.762,-4.587 89.483,8.316 95.007,49.496 5.522,41.18 -28.245,115.73 -119.643,128.053 z"
             style="fill:#f181a9;fill-opacity:1;fill-rule:nonzero;stroke:none"
             id="path1804" />
        </g>
        <g
           id="g1806"
           style="fill:#ff6600">
          <g
             id="g1808"
             style="fill:#ff6600" />
          <g
             id="g1820"
             style="fill:#ff6600">
            <g
               clip-path="url(#clipPath1812)"
               opacity="0.300003"
               id="g1818"
               style="fill:#ff6600">
              <g
                 transform="translate(339.359,200.237)"
                 id="g1816"
                 style="fill:#ff6600">
                <path
                   d="m 0,0 c 0,0 34.633,-30.418 29.795,-50.098 -4.837,-19.68 -83.904,-17.78 -83.904,-17.78 v -55.961 c 0,0 34.682,0.777 64.404,-3.144 34.762,-4.587 89.483,8.316 95.007,49.496 5.522,41.18 -28.245,115.73 -119.643,128.053 z"
                   style="fill:#ffff00;fill-opacity:1;fill-rule:nonzero;stroke:none"
                   id="path1814" />
              </g>
            </g>
          </g>
        </g>
        <path
           d="m 439.117,127.076 h -18.97 v 19.897 h 18.97 z m 0,-20.899 h -18.97 v 19.898 h 18.97 z m -19.97,62.695 h -18.971 v 19.898 h 18.971 z m 0,-20.899 h -18.971 v 19.898 h 18.971 z m 0,-20.897 h -18.971 v 19.897 h 18.971 z m 0,-20.899 h -18.971 v 19.898 h 18.971 z m -19.971,83.593 h -18.97 v 19.897 h 18.97 z m 0,-20.898 h -18.97 v 19.898 h 18.97 z m 0,-20.899 h -18.97 v 19.898 h 18.97 z m 0,-20.897 h -18.97 v 19.897 h 18.97 z m 0,-20.899 h -18.97 v 19.898 h 18.97 z m 0,-20.898 h -18.97 v 19.898 h 18.97 z m -19.969,125.389 h -18.97 v 19.898 h 18.97 z m 0,-20.898 h -18.97 v 19.897 h 18.97 z m 0,-83.593 h -18.97 v 19.898 h 18.97 z m 0,-20.898 h -18.97 v 19.898 h 18.97 z m -19.97,20.898 h -18.97 v 19.898 h 18.97 z m 0,-20.898 h -18.97 v 19.898 h 18.97 z m -19.97,20.898 h -18.97 v 19.898 h 18.97 z m 0,-20.898 h -18.97 v 19.898 h 18.97 z m -19.97,20.898 h -18.97 v 19.898 h 18.97 z m 0,-20.898 h -18.97 v 19.898 h 18.97 z m 39.94,125.389 h -18.97 v 19.898 h 18.97 z m 80.88,-83.592 v 19.897 h 3.721 c -0.059,0.332 -0.121,0.666 -0.183,1 h -3.538 v 13.721 c -0.318,0.97 -0.652,1.941 -1,2.916 v -16.637 h -18.97 v 19.899 h 17.752 c -0.131,0.333 -0.266,0.667 -0.399,1 h -17.353 v 19.898 h 7.146 c -0.211,0.334 -0.423,0.667 -0.638,1 h -6.508 v 9.165 c -0.332,0.426 -0.661,0.853 -1,1.277 V 189.77 h -18.971 v 19.898 h 10.621 c -0.325,0.335 -0.655,0.668 -0.986,1 h -9.635 v 8.76 c -0.332,0.273 -0.664,0.545 -1,0.816 v -9.576 h -18.969 v 19.898 h 4.197 c -0.555,0.335 -1.107,0.671 -1.671,1 h -2.526 v 1.442 c -0.33,0.184 -0.667,0.363 -1,0.544 v -1.986 h -18.97 v 10.602 c -0.33,0.122 -0.668,0.236 -1,0.356 v -10.958 h -18.97 v 16.49 c -0.332,0.076 -0.666,0.148 -1,0.221 v -16.711 h -8.793 l 0.283,-1 h 8.51 v -19.898 h -2.866 l 0.283,-1 h 2.583 v -9.108 l 0.092,-0.323 c 0,0 0.327,-0.287 0.908,-0.819 v 10.25 h 18.97 V 189.77 h -9.355 c 0.301,-0.328 0.604,-0.66 0.91,-1 h 8.445 v -10.348 c 0.337,-0.463 0.671,-0.931 1,-1.401 v 11.749 h 18.97 v -19.898 h -13.95 c 0.175,-0.333 0.346,-0.666 0.512,-1 h 13.438 v -19.899 h -10.94 c -0.194,-0.34 -0.411,-0.674 -0.653,-1 h 11.593 v -19.897 h -18.97 v 14.411 c -0.327,-0.156 -0.659,-0.311 -1,-0.461 v -13.95 h -18.97 v 8.753 c -0.332,-0.058 -0.666,-0.113 -1,-0.169 v -8.584 h -18.97 v 6.346 c -0.333,-0.027 -0.667,-0.053 -1,-0.079 v -6.267 h -18.969 v 5.348 c -0.337,-0.008 -0.671,-0.015 -1,-0.023 v -5.325 H 285.25 v -1 h 14.078 V 106.177 H 285.25 v -1 h 14.078 V 85.279 H 285.25 v -1 h 14.078 v -7.858 c 0.329,-0.004 0.663,-0.009 1,-0.013 v 7.871 h 18.969 v -8.446 c 0.332,-0.016 0.667,-0.034 1,-0.05 v 8.496 h 18.97 v -9.854 c 0.333,-0.032 0.667,-0.064 1,-0.097 v 9.951 h 18.97 V 72.46 c 0.333,-0.013 0.665,-0.025 1,-0.035 v 11.854 h 18.97 V 73.366 c 0.333,0.042 0.666,0.082 1,0.127 v 10.786 h 18.969 v -6.662 c 0.335,0.102 0.667,0.211 1,0.317 v 6.345 h 15.23 c 0.612,0.326 1.219,0.66 1.819,1 h -17.049 v 19.898 h 18.971 V 86.406 c 0.335,0.203 0.669,0.408 1,0.616 v 18.155 h 18.401 c 0.555,0.927 1.078,1.877 1.569,2.847 v 18.052 h 4.891 c 0.027,0.332 0.053,0.664 0.075,1 z"
           style="fill:#e3dbdb;fill-opacity:1;fill-rule:nonzero;stroke:none"
           id="path1822" />
        <g
           id="g1824"
           transform="translate(339.359,200.237)">
          <path
             d="m 0,0 c 0,0 34.633,-30.418 29.795,-50.098 -4.837,-19.68 -83.904,-17.78 -83.904,-17.78 v -55.961 c 0,0 34.682,0.777 64.404,-3.144 34.762,-4.587 89.483,8.316 95.007,49.496 5.522,41.18 -28.245,115.73 -119.643,128.053"
             style="fill:none;stroke:#1a2e35;stroke-width:1;stroke-linecap:butt;stroke-linejoin:miter;stroke-miterlimit:10;stroke-dasharray:none;stroke-opacity:1"
             id="path1826" />
        </g>
        <g
           id="g1828"
           transform="translate(299.8033,87.0134)">
          <path
             d="m 0,0 c 0,-2.271 -1.842,-4.112 -4.113,-4.112 -2.272,0 -4.114,1.841 -4.114,4.112 0,2.271 1.842,4.113 4.114,4.113 C -1.842,4.113 0,2.271 0,0"
             style="fill:#1a2e35;fill-opacity:1;fill-rule:nonzero;stroke:none"
             id="path1830" />
        </g>
        <g
           id="g1832"
           transform="translate(305.4449,132.5778)">
          <path
             d="M 0,0 V -56.172"
             style="fill:none;stroke:#1a2e35;stroke-width:1;stroke-linecap:butt;stroke-linejoin:miter;stroke-miterlimit:10;stroke-dasharray:none;stroke-opacity:1"
             id="path1834" />
        </g>
        <g
           id="g1836"
           transform="translate(336.9948,296.5373)">
          <path
             d="m 0,0 c 0,-6.561 -5.362,-11.879 -11.977,-11.879 -6.614,0 -11.976,5.318 -11.976,11.879 0,6.561 5.362,11.878 11.976,11.878 C -5.362,11.878 0,6.561 0,0 Z"
             style="fill:none;stroke:#000000;stroke-width:2;stroke-linecap:butt;stroke-linejoin:miter;stroke-miterlimit:10;stroke-dasharray:none;stroke-opacity:1"
             id="path1838" />
        </g>
        <g
           id="g1840"
           transform="translate(284.818,333.3967)">
          <path
             d="m 0,0 h 15.043 c 10.001,0 18.184,-9.316 18.184,-20.703 v -23.318 c 0,-0.658 -0.035,-1.306 -0.087,-1.948 0.162,-0.688 0.256,-1.401 0.256,-2.136 V -62.3 -63.091 -77.286 c 0,-5.151 -4.213,-9.365 -9.365,-9.365 h -5.968 c -5.15,0 -9.365,4.214 -9.365,9.365 v 12.562 H 0 c -10.001,0 -18.184,9.316 -18.184,20.703 v 23.318 C -18.184,-9.316 -10.001,0 0,0"
             style="fill:#ffffff;fill-opacity:1;fill-rule:nonzero;stroke:none"
             id="path1842" />
        </g>
        <g
           id="g1844"
           transform="translate(284.818,333.3967)">
          <path
             d="m 0,0 h 15.043 c 10.001,0 18.184,-9.316 18.184,-20.703 v -23.318 c 0,-0.658 -0.035,-1.306 -0.087,-1.948 0.162,-0.688 0.256,-1.401 0.256,-2.136 V -62.3 -63.091 -77.286 c 0,-5.151 -4.213,-9.365 -9.365,-9.365 h -5.968 c -5.15,0 -9.365,4.214 -9.365,9.365 v 12.562 H 0 c -10.001,0 -18.184,9.316 -18.184,20.703 v 23.318 C -18.184,-9.316 -10.001,0 0,0 Z"
             style="fill:none;stroke:#1a2e35;stroke-width:1;stroke-linecap:butt;stroke-linejoin:miter;stroke-miterlimit:10;stroke-dasharray:none;stroke-opacity:1"
             id="path1846" />
        </g>
        <g
           id="g1848"
           transform="translate(314.1031,296.9196)">
          <path
             d="m 0,0 -2.776,18.265 c 0,0 -50.534,-6.335 -66.915,18.212 -16.382,24.547 0.833,34.265 9.163,32.877 8.329,-1.389 18.068,-13.328 18.068,-13.328 0,0 -7.753,10.551 0,12.217 7.753,1.666 16.317,-6.386 20.781,-14.716 0,0 33.31,3.106 44.571,-17.05 C 34.151,16.321 25.025,2.022 4.431,-18.802 L 3.055,-7.154 Z"
             style="fill:#1a2e35;fill-opacity:1;fill-rule:nonzero;stroke:none"
             id="path1850" />
        </g>
        <g
           id="g1852"
           transform="translate(309.569,293.3327)">
          <path
             d="m 0,0 c 0,-4.77 -3.866,-8.637 -8.636,-8.637 -4.77,0 -8.636,3.867 -8.636,8.637 0,4.77 3.866,8.636 8.636,8.636 C -3.866,8.636 0,4.77 0,0"
             style="fill:#f181a9;fill-opacity:1;fill-rule:nonzero;stroke:none"
             id="path1854" />
        </g>
        <g
           id="g1856"
           transform="translate(268.7418,300.2394)">
          <path
             d="m 0,0 c -0.525,0 -1.034,-0.068 -1.524,-0.185 v -8.957 c 0,-1.339 -0.142,-2.643 0.129,-3.903 0.361,-0.061 1.017,-0.102 1.395,-0.102 3.63,0 6.573,2.943 6.573,6.574 C 6.573,-2.943 3.63,0 0,0"
             style="fill:#f181a9;fill-opacity:1;fill-rule:nonzero;stroke:none"
             id="path1858" />
        </g>
        <g
           id="g1860"
           transform="translate(293.9811,305.3942)">
          <path
             d="m 0,0 c 0,-1.696 -1.375,-3.072 -3.072,-3.072 -1.697,0 -3.072,1.376 -3.072,3.072 0,1.697 1.375,3.072 3.072,3.072 C -1.375,3.072 0,1.697 0,0"
             style="fill:#1a2e35;fill-opacity:1;fill-rule:nonzero;stroke:none"
             id="path1862" />
        </g>
        <g
           id="g1864"
           transform="translate(273.8698,305.8444)">
          <path
             d="m 0,0 c 0,-1.448 -1.174,-2.622 -2.622,-2.622 -1.448,0 -2.622,1.174 -2.622,2.622 0,1.448 1.174,2.622 2.622,2.622 C -1.174,2.622 0,1.448 0,0"
             style="fill:#1a2e35;fill-opacity:1;fill-rule:nonzero;stroke:none"
             id="path1866" />
        </g>
        <g
           id="g1868"
           transform="translate(276.8033,293.2761)">
          <path
             d="m 0,0 c 0,0 1.543,-4.499 4.807,-4.807 3.263,-0.309 5.821,3.307 5.998,6.13 z"
             style="fill:#ffffff;fill-opacity:1;fill-rule:nonzero;stroke:none"
             id="path1870" />
        </g>
        <g
           id="g1872"
           transform="translate(276.4801,293.1872)">
          <path
             d="m 0,0 c 0.532,-1.539 1.494,-3.088 2.787,-4.09 2.29,-1.776 5.206,-0.868 6.921,1.245 0.981,1.208 1.639,2.698 1.755,4.257 0.013,0.166 -0.164,0.356 -0.335,0.335 C 7.974,1.361 4.82,0.975 1.666,0.588 1.219,0.533 0.771,0.479 0.323,0.424 -0.1,0.372 -0.104,-0.298 0.323,-0.246 3.477,0.14 6.631,0.526 9.784,0.913 10.232,0.967 10.68,1.022 11.128,1.077 11.017,1.188 10.904,1.3 10.793,1.412 10.615,-0.975 8.899,-3.643 6.496,-4.274 4.193,-4.879 2.409,-3.18 1.354,-1.329 1.081,-0.849 0.827,-0.345 0.646,0.178 0.506,0.583 -0.142,0.409 0,0"
             style="fill:#1a2e35;fill-opacity:1;fill-rule:nonzero;stroke:none"
             id="path1874" />
        </g>
        <g
           id="g1876"
           transform="translate(306.4586,307.1926)">
          <path
             d="m 0,0 c 0,-6.62 -4.801,-11.986 -10.723,-11.986 -5.923,0 -10.723,5.366 -10.723,11.986 0,6.62 4.8,11.986 10.723,11.986 C -4.801,11.986 0,6.62 0,0 Z"
             style="fill:none;stroke:#455a64;stroke-width:1;stroke-linecap:butt;stroke-linejoin:miter;stroke-miterlimit:10;stroke-dasharray:none;stroke-opacity:1"
             id="path1878" />
        </g>
        <g
           id="g1880"
           transform="translate(277.8405,308.6945)">
          <path
             d="m 0,0 c 0,-5.92 -3.953,-10.719 -8.829,-10.719 -4.876,0 -8.829,4.799 -8.829,10.719 0,5.92 3.953,10.719 8.829,10.719 C -3.953,10.719 0,5.92 0,0 Z"
             style="fill:none;stroke:#455a64;stroke-width:1;stroke-linecap:butt;stroke-linejoin:miter;stroke-miterlimit:10;stroke-dasharray:none;stroke-opacity:1"
             id="path1882" />
        </g>
        <g
           id="g1884"
           transform="translate(280.9615,308.4269)">
          <path
             d="m 0,0 v -10.41 l -5.457,3.325 z"
             style="fill:#f181a9;fill-opacity:1;fill-rule:nonzero;stroke:none"
             id="path1886" />
        </g>
        <g
           id="g1888"
           transform="translate(277.5612,305.4894)">
          <path
             d="M 0,0 C 0,0 4.565,1.728 7.697,-0.86"
             style="fill:none;stroke:#455a64;stroke-width:1;stroke-linecap:butt;stroke-linejoin:miter;stroke-miterlimit:10;stroke-dasharray:none;stroke-opacity:1"
             id="path1890" />
        </g>
        <g
           id="g1892"
           transform="translate(306.4449,306.7531)">
          <path
             d="M 0,0 14.546,-3.041"
             style="fill:none;stroke:#455a64;stroke-width:1;stroke-linecap:butt;stroke-linejoin:miter;stroke-miterlimit:10;stroke-dasharray:none;stroke-opacity:1"
             id="path1894" />
        </g>
        <g
           id="g1896"
           transform="translate(336.9948,296.5373)">
          <path
             d="m 0,0 c 0,-6.561 -5.362,-11.879 -11.977,-11.879 -6.614,0 -11.976,5.318 -11.976,11.879 0,6.561 5.362,11.878 11.976,11.878 C -5.362,11.878 0,6.561 0,0"
             style="fill:#ffffff;fill-opacity:1;fill-rule:nonzero;stroke:none"
             id="path1898" />
        </g>
        <g
           id="g1900"
           transform="translate(318.9528,294.9684)">
          <path
             d="M 0,0 C -0.152,2.399 0.884,5.171 3.22,6.265 4.497,6.864 5.968,6.902 7.346,6.759 7.874,6.704 7.87,7.53 7.346,7.584 4.979,7.831 2.42,7.383 0.841,5.449 -0.174,4.207 -0.659,2.634 -0.797,1.054 -0.827,0.705 -0.848,0.35 -0.825,0 -0.792,-0.528 0.034,-0.532 0,0"
             style="fill:#1a2e35;fill-opacity:1;fill-rule:nonzero;stroke:none"
             id="path1902" />
        </g>
        <g
           id="g1904"
           transform="translate(328.2926,241.7018)">
          <path
             d="m 0,0 h -43.149 c -1.565,0 -2.832,1.269 -2.832,2.833 v 7.402 c 0,1.565 1.267,2.833 2.832,2.833 H 0 c 1.563,0 2.832,-1.268 2.832,-2.833 V 2.833 C 2.832,1.269 1.563,0 0,0"
             style="fill:#f181a9;fill-opacity:1;fill-rule:nonzero;stroke:none"
             id="path1906" />
        </g>
        <g
           id="g1908">
          <g
             id="g1910" />
          <g
             id="g1922">
            <g
               clip-path="url(#clipPath1914)"
               opacity="0.300003"
               id="g1920">
              <g
                 transform="translate(328.2926,241.7018)"
                 id="g1918">
                <path
                   d="m 0,0 h -43.149 c -1.565,0 -2.832,1.269 -2.832,2.833 v 7.402 c 0,1.565 1.267,2.833 2.832,2.833 H 0 c 1.563,0 2.832,-1.268 2.832,-2.833 V 2.833 C 2.832,1.269 1.563,0 0,0"
                   style="fill:#ffff00;fill-opacity:1;fill-rule:nonzero;stroke:none"
                   id="path1916" />
              </g>
            </g>
          </g>
        </g>
        <g
           id="g1924"
           transform="translate(292.4244,248.5095)">
          <path
             d="m 0,0 c 0,-1.267 -1.026,-2.294 -2.293,-2.294 -1.268,0 -2.294,1.027 -2.294,2.294 0,1.267 1.026,2.294 2.294,2.294 C -1.026,2.294 0,1.267 0,0"
             style="fill:#1a2e35;fill-opacity:1;fill-rule:nonzero;stroke:none"
             id="path1926" />
        </g>
        <g
           id="g1928"
           transform="translate(320.2975,241.7018)">
          <path
             d="m 0,0 v 9.762 h 10.827 v 0.473 c 0,0.181 -0.02,0.356 -0.053,0.527 H 0 v 2.306 h -1 v -2.306 h -18.97 v 2.306 h -1 v -2.306 h -16.964 c -0.032,-0.171 -0.052,-0.346 -0.052,-0.527 V 9.762 H -20.97 V 0 h 1 V 9.762 H -1 V 0 Z"
             style="fill:#ffcc00;fill-opacity:1;fill-rule:nonzero;stroke:none"
             id="path1930" />
        </g>
        <g
           id="g1932"
           transform="translate(328.2926,241.7018)">
          <path
             d="m 0,0 h -43.149 c -1.565,0 -2.832,1.269 -2.832,2.833 v 7.402 c 0,1.565 1.267,2.833 2.832,2.833 H 0 c 1.563,0 2.832,-1.268 2.832,-2.833 V 2.833 C 2.832,1.269 1.563,0 0,0 Z"
             style="fill:none;stroke:#1a2e35;stroke-width:1;stroke-linecap:butt;stroke-linejoin:miter;stroke-miterlimit:10;stroke-dasharray:none;stroke-opacity:1"
             id="path1934" />
        </g>
      </g>
    </g>
    <g
       id="g1936">
      <g
         id="g1938"
         clip-path="url(#clipPath1942)">
        <g
           id="g1944"
           transform="translate(429.652,77.2448)">
          <path
             d="m 0,0 c -6.403,0 -11.594,5.19 -11.594,11.594 0,6.403 5.191,11.593 11.594,11.593 6.403,0 11.594,-5.19 11.594,-11.593 C 11.594,5.19 6.403,0 0,0 m 0,29.941 c -10.133,0 -18.348,-8.214 -18.348,-18.347 0,-10.133 8.215,-18.348 18.348,-18.348 10.133,0 18.348,8.215 18.348,18.348 0,10.133 -8.215,18.347 -18.348,18.347"
             style="fill:#ffffff;fill-opacity:1;fill-rule:nonzero;stroke:none"
             id="path1946" />
        </g>
        <g
           id="g1948"
           transform="translate(429.652,77.2448)">
          <path
             d="m 0,0 c -6.403,0 -11.594,5.19 -11.594,11.594 0,6.403 5.191,11.593 11.594,11.593 6.403,0 11.594,-5.19 11.594,-11.593 C 11.594,5.19 6.403,0 0,0 Z m 0,29.941 c -10.133,0 -18.348,-8.214 -18.348,-18.347 0,-10.133 8.215,-18.348 18.348,-18.348 10.133,0 18.348,8.215 18.348,18.348 0,10.133 -8.215,18.347 -18.348,18.347 z"
             style="fill:none;stroke:#1a2e35;stroke-width:1;stroke-linecap:butt;stroke-linejoin:miter;stroke-miterlimit:10;stroke-dasharray:none;stroke-opacity:1"
             id="path1950" />
        </g>
        <g
           id="g1952"
           transform="translate(424.5524,59.3932)">
          <path
             d="m 0,0 h -38.821 c -3.243,0 -5.872,2.629 -5.872,5.873 v 46.499 c 0,3.244 2.629,5.873 5.872,5.873 H 0 c 3.244,0 5.873,-2.629 5.873,-5.873 V 5.873 C 5.873,2.629 3.244,0 0,0"
             style="fill:#ffffff;fill-opacity:1;fill-rule:nonzero;stroke:none"
             id="path1954" />
        </g>
        <g
           id="g1956"
           transform="translate(424.5524,59.3932)">
          <path
             d="m 0,0 h -38.821 c -3.243,0 -5.872,2.629 -5.872,5.873 v 46.499 c 0,3.244 2.629,5.873 5.872,5.873 H 0 c 3.244,0 5.873,-2.629 5.873,-5.873 V 5.873 C 5.873,2.629 3.244,0 0,0 Z"
             style="fill:none;stroke:#1a2e35;stroke-width:1;stroke-linecap:butt;stroke-linejoin:miter;stroke-miterlimit:10;stroke-dasharray:none;stroke-opacity:1"
             id="path1958" />
        </g>
        <g
           id="g1960"
           transform="translate(409.5924,71.8581)"
           style="fill:#ff6600">
          <path
             d="m 0,0 h -8.9 c -4.444,0 -8.045,3.602 -8.045,8.045 v 0.891 c 0,4.443 3.601,8.044 8.045,8.044 H 0 c 4.443,0 8.045,-3.601 8.045,-8.044 V 8.045 C 8.045,3.602 4.443,0 0,0"
             style="fill:#ffcc00;fill-opacity:1;fill-rule:nonzero;stroke:none"
             id="path1962" />
        </g>
        <g
           id="g1964"
           transform="translate(397.1246,67.5026)">
          <path
             d="m 0,0 h -0.884 c -1.375,0 -2.49,1.115 -2.49,2.49 v 5.511 c 0,1.375 1.115,2.49 2.49,2.49 H 0 c 1.375,0 2.49,-1.115 2.49,-2.49 V 2.49 C 2.49,1.115 1.375,0 0,0"
             style="fill:#ffcc00;fill-opacity:1;fill-rule:nonzero;stroke:none"
             id="path1966" />
        </g>
        <g
           id="g1968"
           transform="translate(414.0074,67.1804)"
           style="fill:#ff6600">
          <path
             d="m 0,0 h -0.884 c -1.375,0 -2.49,1.114 -2.49,2.49 V 8 c 0,1.376 1.115,2.49 2.49,2.49 H 0 C 1.375,10.49 2.49,9.376 2.49,8 V 2.49 C 2.49,1.114 1.375,0 0,0"
             style="fill:#ffcc00;fill-opacity:1;fill-rule:nonzero;stroke:none"
             id="path1970" />
        </g>
        <g
           id="g1972"
           transform="translate(398.5983,84.1667)"
           style="fill:#ff6600">
          <path
             d="M 0,0 C -0.806,3.636 -1.49,7.342 -1.776,11.057 -2.305,17.915 1.095,21.126 8.255,20.126 12.031,19.6 13.664,25.38 9.851,25.912 2.719,26.907 -5.774,25.204 -7.604,17.07 -8.917,11.229 -7.056,4.137 -5.786,-1.595 -4.951,-5.363 0.835,-3.769 0,0"
             style="fill:#ffcc00;fill-opacity:1;fill-rule:nonzero;stroke:none"
             id="path1974" />
        </g>
        <g
           id="g1976"
           transform="translate(412.483,83.5593)">
          <path
             d="m 0,0 c 0.232,0.29 1.438,-0.13 1.792,-0.244 2.39,-0.776 11.653,-2.891 10.996,-10.89 -0.438,-5.327 -3.369,-7.408 -5.922,-8.257 -0.925,-0.307 -1.604,0.84 -0.892,1.505 0.904,0.845 1.798,1.908 2.334,3.144 1.353,3.122 -1.449,5.593 -8.968,9.177 -0.512,0.244 -0.157,3.655 0.196,4.097 z"
             style="fill:#ffcc00;fill-opacity:1;fill-rule:nonzero;stroke:none"
             id="path1978" />
        </g>
        <g
           id="g1980"
           transform="translate(406.4449,108.5231)">
          <path
             d="m 0,0 c 0,-0.36 -0.291,-0.651 -0.651,-0.651 -0.36,0 -0.652,0.291 -0.652,0.651 0,0.359 0.292,0.651 0.652,0.651 C -0.291,0.651 0,0.359 0,0"
             style="fill:#1a2e35;fill-opacity:1;fill-rule:nonzero;stroke:none"
             id="path1982" />
        </g>
        <g
           id="g1984"
           transform="translate(405.7213,106.1579)">
          <path
             d="m 0,0 c 0.054,-0.206 0.174,-0.403 0.299,-0.571 0.315,-0.422 0.764,-0.718 1.258,-0.894 0.432,-0.154 0.893,-0.216 1.35,-0.226 0.097,-0.003 0.097,0.147 0,0.149 C 1.866,-1.516 0.69,-1.155 0.214,-0.141 0.187,-0.083 0.161,-0.022 0.145,0.039 0.12,0.133 -0.024,0.094 0,0"
             style="fill:#1a2e35;fill-opacity:1;fill-rule:nonzero;stroke:none"
             id="path1986" />
        </g>
        <g
           id="g1988"
           transform="translate(404.0133,85.0251)">
          <path
             d="m 0,0 c 0,-0.585 -0.769,-1.059 -1.715,-1.059 -0.947,0 -1.715,0.474 -1.715,1.059 0,0.585 0.768,1.059 1.715,1.059 C -0.769,1.059 0,0.585 0,0"
             style="fill:#f181a9;fill-opacity:1;fill-rule:nonzero;stroke:none"
             id="path1990" />
        </g>
        <g
           id="g1992"
           transform="translate(407.108,83.0524)">
          <path
             d="m 0,0 c 0,-0.335 -0.44,-0.606 -0.983,-0.606 -0.542,0 -0.983,0.271 -0.983,0.606 0,0.336 0.441,0.607 0.983,0.607 C -0.44,0.607 0,0.336 0,0"
             style="fill:#f181a9;fill-opacity:1;fill-rule:nonzero;stroke:none"
             id="path1994" />
        </g>
        <g
           id="g1996"
           transform="translate(410.2574,86.4645)">
          <path
             d="m 0,0 c 0,-0.45 -0.852,-0.814 -1.9,-0.814 -1.05,0 -1.901,0.364 -1.901,0.814 0,0.449 0.851,0.814 1.901,0.814 C -0.852,0.814 0,0.449 0,0"
             style="fill:#f181a9;fill-opacity:1;fill-rule:nonzero;stroke:none"
             id="path1998" />
        </g>
        <g
           id="g2000"
           transform="translate(413.0807,84.1931)">
          <path
             d="m 0,0 c 0,-0.295 -0.397,-0.533 -0.888,-0.533 -0.49,0 -0.888,0.238 -0.888,0.533 0,0.295 0.398,0.533 0.888,0.533 C -0.397,0.533 0,0.295 0,0"
             style="fill:#f181a9;fill-opacity:1;fill-rule:nonzero;stroke:none"
             id="path2002" />
        </g>
        <g
           id="g2004">
          <g
             id="g2006" />
          <g
             id="g2030">
            <g
               clip-path="url(#clipPath2010)"
               opacity="0.600006"
               id="g2028">
              <g
                 transform="translate(404.0133,85.0251)"
                 id="g2014">
                <path
                   d="m 0,0 c 0,-0.585 -0.769,-1.059 -1.715,-1.059 -0.947,0 -1.715,0.474 -1.715,1.059 0,0.585 0.768,1.059 1.715,1.059 C -0.769,1.059 0,0.585 0,0"
                   style="fill:#ffffff;fill-opacity:1;fill-rule:nonzero;stroke:none"
                   id="path2012" />
              </g>
              <g
                 transform="translate(407.108,83.0524)"
                 id="g2018">
                <path
                   d="m 0,0 c 0,-0.335 -0.44,-0.606 -0.983,-0.606 -0.542,0 -0.983,0.271 -0.983,0.606 0,0.336 0.441,0.607 0.983,0.607 C -0.44,0.607 0,0.336 0,0"
                   style="fill:#ffffff;fill-opacity:1;fill-rule:nonzero;stroke:none"
                   id="path2016" />
              </g>
              <g
                 transform="translate(410.2574,86.4645)"
                 id="g2022">
                <path
                   d="m 0,0 c 0,-0.45 -0.852,-0.814 -1.9,-0.814 -1.05,0 -1.901,0.364 -1.901,0.814 0,0.449 0.851,0.814 1.901,0.814 C -0.852,0.814 0,0.449 0,0"
                   style="fill:#ffffff;fill-opacity:1;fill-rule:nonzero;stroke:none"
                   id="path2020" />
              </g>
              <g
                 transform="translate(413.0807,84.1931)"
                 id="g2026">
                <path
                   d="m 0,0 c 0,-0.295 -0.397,-0.533 -0.888,-0.533 -0.49,0 -0.888,0.238 -0.888,0.533 0,0.295 0.398,0.533 0.888,0.533 C -0.397,0.533 0,0.295 0,0"
                   style="fill:#ffffff;fill-opacity:1;fill-rule:nonzero;stroke:none"
                   id="path2024" />
              </g>
            </g>
          </g>
        </g>
        <g
           id="g2032"
           transform="translate(425.4332,136.2302)">
          <path
             d="m 0,0 c -0.052,-3.753 -2.368,-7.208 -5.94,-8.489 -3.594,-1.29 -7.675,-0.165 -10.097,2.787 -2.382,2.903 -2.663,7.122 -0.743,10.335 1.907,3.192 5.73,4.951 9.397,4.25 C -3.109,8.065 -0.06,4.323 0,0 0.02,-1.447 2.27,-1.451 2.25,0 2.186,4.694 -0.69,8.889 -5.09,10.565 c -4.408,1.68 -9.641,0.281 -12.622,-3.376 -2.976,-3.651 -3.444,-8.886 -1.011,-12.959 2.425,-4.058 7.174,-6.14 11.803,-5.307 C -1.612,-10.122 2.177,-5.315 2.25,0 2.27,1.448 0.02,1.449 0,0"
             style="fill:#e1e1e1;fill-opacity:1;fill-rule:nonzero;stroke:none"
             id="path2034" />
        </g>
        <g
           id="g2036"
           transform="translate(469.6119,171.5905)">
          <path
             d="m 0,0 c -0.071,-10.007 -6.725,-18.91 -16.165,-22.129 -9.531,-3.249 -20.407,-0.478 -27.013,7.173 -6.477,7.503 -7.344,18.576 -2.132,26.998 5.343,8.631 15.962,12.969 25.859,10.974 C -8.478,20.803 -0.08,11.31 0,0 0.011,-1.447 2.261,-1.451 2.25,0 2.173,10.932 -5.015,20.541 -15.249,24.187 c -10.393,3.702 -22.603,0.589 -29.73,-7.888 -7.019,-8.346 -7.994,-20.509 -2.1,-29.752 5.901,-9.257 17.176,-13.805 27.889,-11.798 C -7.094,-22.984 2.162,-12.372 2.25,0 2.261,1.448 0.011,1.449 0,0"
             style="fill:#e1e1e1;fill-opacity:1;fill-rule:nonzero;stroke:none"
             id="path2038" />
        </g>
      </g>
    </g>
    <g
       id="g2040">
      <g
         id="g2042"
         clip-path="url(#clipPath2046)">
        <g
           id="g2048"
           transform="translate(99.1476,59.028)">
          <path
             d="m 0,0 105.937,-0.194 c 10.997,-0.02 16.683,8.513 12.7,19.06 l -27.77,73.527 c -3.983,10.546 -16.127,19.113 -27.124,19.132 l -105.937,0.194 c -10.997,0.02 -16.683,-8.514 -12.7,-19.061 L -27.125,19.133 C -23.142,8.586 -10.997,0.02 0,0"
             style="fill:#1a2e35;fill-opacity:1;fill-rule:nonzero;stroke:none"
             id="path2050" />
        </g>
        <g
           id="g2052"
           transform="translate(115.1378,120.6188)">
          <path
             d="m 0,0 c 1.242,-4.669 6.032,-8.461 10.699,-8.469 4.666,-0.009 7.443,3.77 6.201,8.439 C 15.658,4.639 10.868,8.431 6.201,8.439 1.534,8.447 -1.242,4.67 0,0"
             style="fill:#ffffff;fill-opacity:1;fill-rule:nonzero;stroke:none"
             id="path2054" />
        </g>
        <g
           id="g2056"
           transform="translate(172.6002,58.8932)">
          <path
             d="m 0,0 106.729,-0.194 c 1.401,-0.003 2.538,1.13 2.541,2.53 l 0.02,10.774 c 0.003,1.401 -1.13,2.538 -2.53,2.54 L 0.027,15.846 c -1.4,0.003 -2.537,-1.131 -2.539,-2.532 L -2.531,2.54 C -2.533,1.14 -1.4,0.003 0,0"
             style="fill:#1a2e35;fill-opacity:1;fill-rule:nonzero;stroke:none"
             id="path2058" />
        </g>
      </g>
    </g>
  </g>
</svg>
