<?xml version="1.0" encoding="UTF-8" standalone="no"?>
<!-- Created with Inkscape (http://www.inkscape.org/) -->

<svg
   width="150"
   height="60"
   viewBox="0 0 39.6875 15.875"
   version="1.1"
   id="svg5"
   xml:space="preserve"
   inkscape:version="1.2.1 (9c6d41e410, 2022-07-14)"
   sodipodi:docname="logo.svg"
   xmlns:inkscape="http://www.inkscape.org/namespaces/inkscape"
   xmlns:sodipodi="http://sodipodi.sourceforge.net/DTD/sodipodi-0.dtd"
   xmlns:xlink="http://www.w3.org/1999/xlink"
   xmlns="http://www.w3.org/2000/svg"
   xmlns:svg="http://www.w3.org/2000/svg"><sodipodi:namedview
     id="namedview7"
     pagecolor="#505050"
     bordercolor="#ffffff"
     borderopacity="1"
     inkscape:showpageshadow="0"
     inkscape:pageopacity="0"
     inkscape:pagecheckerboard="1"
     inkscape:deskcolor="#ffffff"
     inkscape:document-units="px"
     showgrid="false"
     showguides="true"
     showborder="false"
     borderlayer="false"
     inkscape:zoom="5.7299663"
     inkscape:cx="98.255377"
     inkscape:cy="42.670408"
     inkscape:window-width="1920"
     inkscape:window-height="991"
     inkscape:window-x="-9"
     inkscape:window-y="-9"
     inkscape:window-maximized="1"
     inkscape:current-layer="g4783"><inkscape:page
       x="0"
       y="0"
       width="39.6875"
       height="15.875"
       id="page229" /><inkscape:page
       x="220"
       y="0"
       width="264.58334"
       height="176.3889"
       id="page231" /></sodipodi:namedview><defs
     id="defs2"><rect
       x="284.46939"
       y="-144.50346"
       width="386.28049"
       height="98.731644"
       id="rect4556" /><color-profile
       name="Agfa-:-Swop-Standard"
       xlink:href="../../../../../WINDOWS/system32/spool/drivers/color/RSWOP.icm"
       id="color-profile669" /><color-profile
       name="ACER-S271HL"
       xlink:href="../../../../../WINDOWS/system32/spool/drivers/color/ACER_S271HL.icm"
       id="color-profile671" /><clipPath
       clipPathUnits="userSpaceOnUse"
       id="clipPath35"><path
         d="M 0,500 H 750 V 0 H 0 Z"
         id="path33" /></clipPath><clipPath
       clipPathUnits="userSpaceOnUse"
       id="clipPath67"><path
         d="M 0,500 H 750 V 0 H 0 Z"
         id="path65" /></clipPath><clipPath
       clipPathUnits="userSpaceOnUse"
       id="clipPath103"><path
         d="M 0,500 H 750 V 0 H 0 Z"
         id="path101" /></clipPath><clipPath
       clipPathUnits="userSpaceOnUse"
       id="clipPath135"><path
         d="M 0,500 H 750 V 0 H 0 Z"
         id="path133" /></clipPath><clipPath
       clipPathUnits="userSpaceOnUse"
       id="clipPath159"><path
         d="M 0,500 H 750 V 0 H 0 Z"
         id="path157" /></clipPath><clipPath
       clipPathUnits="userSpaceOnUse"
       id="clipPath199"><path
         d="M 0,500 H 750 V 0 H 0 Z"
         id="path197" /></clipPath></defs><g
     inkscape:label="Capa 1"
     inkscape:groupmode="layer"
     id="layer1" /><path
     d="M 220,176.38889 H 484.58332 V 5.2916668e-6 H 220 Z"
     style="fill:#f2f2f2;fill-opacity:1;fill-rule:nonzero;stroke:none;stroke-width:0.352778"
     id="path19" /><text
     xml:space="preserve"
     style="font-variant:normal;font-weight:bold;font-stretch:normal;font-size:6.70278px;font-family:'Caviar Dreams';-inkscape-font-specification:CaviarDreams-Bold;writing-mode:lr-tb;fill:#47444b;fill-opacity:1;fill-rule:nonzero;stroke:none;stroke-width:0.352778"
     id="text23"
     x="241.95665"
     y="76.262871"><tspan
       x="241.95665 247.39931 253.64629 259.64526 263.03085 267.60214 272.11313 276.80505 279.19125 282.35495 288.60196 294.12503"
       y="76.262871"
       sodipodi:role="line"
       id="tspan21"
       style="stroke-width:0.352778">COMPANY LOGO</tspan></text><text
     xml:space="preserve"
     style="font-variant:normal;font-weight:normal;font-stretch:normal;font-size:3.37965px;font-family:'Bebas Neue Regular';-inkscape-font-specification:BebasNeueRegular;writing-mode:lr-tb;fill:#64616c;fill-opacity:1;fill-rule:nonzero;stroke:none;stroke-width:0.352778"
     id="text27"
     x="255.25058"
     y="80.616783"><tspan
       x="255.25058 257.06546 259.05606 261.06357 262.95618 265.39966 266.59943 267.80936 269.74927 271.68243 273.66629 276.10977 277.30954 279.32379 281.31442 283.12927 285.1199"
       y="80.616783"
       sodipodi:role="line"
       id="tspan25"
       style="stroke-width:0.352778">LOREM IPSUM DOLOR</tspan></text><g
     id="g29"
     transform="matrix(0.35277776,0,0,-0.35277778,220,176.38889)"><g
       id="g31"
       clip-path="url(#clipPath35)"><g
         id="g37"
         transform="translate(163.0945,347.5413)"><path
           d="m 0,0 h -32.15 c -23.761,0 -43.78,18.708 -44.314,42.463 -0.55,24.418 19.153,44.457 43.449,44.457 h 59.708 c 6.562,0 11.881,-5.319 11.881,-11.881 0,-6.562 -5.319,-11.881 -11.881,-11.881 h -59.097 c -11.718,0 -21.178,-9.598 -20.246,-21.279 0.808,-10.125 9.306,-18.117 19.635,-18.117 H 0 c 0.029,0 0.052,-0.023 0.052,-0.052 V 0.052 C 0.052,0.023 0.029,0 0,0"
           style="fill:#64616c;fill-opacity:1;fill-rule:nonzero;stroke:none"
           id="path39" /></g><g
         id="g41"
         transform="translate(162.6204,316.0027)"><path
           d="m 0,0 h -58.842 c -6.562,0 -11.882,5.319 -11.882,11.881 0,6.562 5.32,11.881 11.882,11.881 H 0.255 c 11.718,0 21.178,9.599 20.245,21.28 -0.807,10.124 -9.305,18.116 -19.634,18.116 h -33.015 c -0.029,0 -0.053,0.023 -0.053,0.052 v 23.658 c 0,0.028 0.024,0.052 0.053,0.052 H 0.866 C 25.162,86.92 44.865,66.88 44.315,42.462 43.779,18.708 23.76,0 0,0"
           style="fill:#64616c;fill-opacity:1;fill-rule:nonzero;stroke:none"
           id="path43" /></g><g
         id="g45"
         transform="translate(177.9983,359.4221)"><path
           d="m 0,0 c 0,-8.202 -6.649,-14.852 -14.852,-14.852 -8.202,0 -14.851,6.65 -14.851,14.852 0,8.202 6.649,14.852 14.851,14.852 C -6.649,14.852 0,8.202 0,0"
           style="fill:#ffb200;fill-opacity:1;fill-rule:nonzero;stroke:none"
           id="path47" /></g><g
         id="g49"
         transform="translate(115.5672,391.0418)"><path
           d="m 0,0 c 0,8.202 6.649,14.852 14.852,14.852 8.202,0 14.851,-6.65 14.851,-14.852 0,-8.202 -6.649,-14.852 -14.851,-14.852 C 6.649,-14.852 0,-8.202 0,0"
           style="fill:#00a1ff;fill-opacity:1;fill-rule:nonzero;stroke:none"
           id="path51" /></g></g></g><text
     xml:space="preserve"
     style="font-variant:normal;font-weight:bold;font-stretch:normal;font-size:6.70278px;font-family:'League Spartan';-inkscape-font-specification:LeagueSpartan-Bold;writing-mode:lr-tb;fill:#47444b;fill-opacity:1;fill-rule:nonzero;stroke:none;stroke-width:0.352778"
     id="text55"
     x="322.81506"
     y="76.262871"><tspan
       x="322.81506 327.92929 333.87466 340.2825 344.38461 349.7066 354.70688 359.70715 361.60406 365.45816 371.4035 377.02713"
       y="76.262871"
       sodipodi:role="line"
       id="tspan53"
       style="stroke-width:0.352778">COMPANY LOGO</tspan></text><text
     xml:space="preserve"
     style="font-variant:normal;font-weight:normal;font-stretch:normal;font-size:3.37965px;font-family:Lato;-inkscape-font-specification:Lato-Regular;writing-mode:lr-tb;fill:#64616c;fill-opacity:1;fill-rule:nonzero;stroke:none;stroke-width:0.352778"
     id="text59"
     x="332.31168"
     y="80.616783"><tspan
       x="332.31168 334.27188 337.31357 339.76718 342.05521 345.52948 346.73264 348.01691 350.38266 352.55237 355.37439 358.84866 360.05182 362.95831 366 367.96051 371.0022"
       y="80.616783"
       sodipodi:role="line"
       id="tspan57"
       style="stroke-width:0.352778">LOREM IPSUM DOLOR</tspan></text><g
     id="g61"
     transform="matrix(0.35277776,0,0,-0.35277778,220,176.38889)"><g
       id="g63"
       clip-path="url(#clipPath67)"><g
         id="g69"
         transform="translate(323.3636,332.1341)"><path
           d="m 0,0 v 13.654 c 0,54.422 44.118,98.54 98.541,98.54 h 4.965 c 3.123,0 5.656,-2.531 5.656,-5.655 0,-3.123 -2.533,-5.656 -5.656,-5.656 h -4.965 c -43.008,0 -78.847,-31.288 -85.951,-72.296 l 45.637,45.636 c 2.209,2.209 5.79,2.209 7.998,0 2.208,-2.209 2.208,-5.789 0,-7.998 z"
           style="fill:#47444b;fill-opacity:1;fill-rule:nonzero;stroke:none"
           id="path71" /></g><g
         id="g73"
         transform="translate(333.9851,313.1805)"><path
           d="m 0,0 h -4.966 c -3.123,0 -5.656,2.532 -5.656,5.656 0,3.123 2.533,5.655 5.656,5.655 H 0 c 43.008,0 78.846,31.289 85.949,72.296 L 40.314,37.972 c -2.209,-2.209 -5.79,-2.209 -7.998,0 -2.209,2.208 -2.209,5.789 0,7.998 L 98.54,112.194 V 98.541 C 98.54,44.118 54.422,0 0,0"
           style="fill:#47444b;fill-opacity:1;fill-rule:nonzero;stroke:none"
           id="path75" /></g><g
         id="g77"
         transform="translate(370.1814,349.0491)"><path
           d="m 0,0 c -0.617,0 -1.244,0.096 -1.862,0.297 -3.15,1.028 -4.871,4.415 -3.843,7.565 l 15.46,47.396 c 1.027,3.151 4.412,4.872 7.564,3.844 3.151,-1.028 4.871,-4.415 3.844,-7.565 L 5.703,4.141 C 4.877,1.608 2.527,0 0,0"
           style="fill:#ffb200;fill-opacity:1;fill-rule:nonzero;stroke:none"
           id="path79" /></g><g
         id="g81"
         transform="translate(421.9041,433.0174)"><path
           d="m 0,0 h 4.966 c 3.123,0 5.655,2.532 5.655,5.656 0,3.123 -2.532,5.655 -5.655,5.655 H 0 c -54.422,0 -98.541,-44.118 -98.541,-98.54 v -13.654 l 12.59,28.587 C -78.846,-31.288 -43.008,0 0,0"
           style="fill:#64616c;fill-opacity:1;fill-rule:nonzero;stroke:none"
           id="path83" /></g><g
         id="g85"
         transform="translate(333.9851,324.4915)"><path
           d="m 0,0 h -4.966 c -3.123,0 -5.656,-2.532 -5.656,-5.655 0,-3.124 2.533,-5.656 5.656,-5.656 H 0 c 54.422,0 98.54,44.118 98.54,98.54 v 13.654 L 85.949,72.296 C 78.846,31.289 43.008,0 0,0"
           style="fill:#64616c;fill-opacity:1;fill-rule:nonzero;stroke:none"
           id="path87" /></g></g></g><text
     xml:space="preserve"
     style="font-variant:normal;font-weight:bold;font-stretch:normal;font-size:6.70278px;font-family:'Caviar Dreams';-inkscape-font-specification:CaviarDreams-Bold;writing-mode:lr-tb;fill:#47444b;fill-opacity:1;fill-rule:nonzero;stroke:none;stroke-width:0.352778"
     id="text91"
     x="406.48853"
     y="76.262871"><tspan
       x="406.48853 411.93118 418.17816 424.17715 427.56274 432.13403 436.64499 441.33694 443.72314 446.88684 453.13382 458.65692"
       y="76.262871"
       sodipodi:role="line"
       id="tspan89"
       style="stroke-width:0.352778">COMPANY LOGO</tspan></text><text
     xml:space="preserve"
     style="font-variant:normal;font-weight:normal;font-stretch:normal;font-size:3.37965px;font-family:'Bebas Neue Regular';-inkscape-font-specification:BebasNeueRegular;writing-mode:lr-tb;fill:#64616c;fill-opacity:1;fill-rule:nonzero;stroke:none;stroke-width:0.352778"
     id="text95"
     x="419.76007"
     y="80.616783"><tspan
       x="419.76007 421.57492 423.56555 425.57306 427.46567 429.90915 431.10892 432.31882 434.25876 436.19189 438.17575 440.61923 441.81903 443.83328 445.82388 447.63876 449.62936"
       y="80.616783"
       sodipodi:role="line"
       id="tspan93"
       style="stroke-width:0.352778">LOREM IPSUM DOLOR</tspan></text><g
     id="g97"
     transform="matrix(0.35277776,0,0,-0.35277778,220,176.38889)"><g
       id="g99"
       clip-path="url(#clipPath103)"><g
         id="g105"
         transform="translate(660.7381,388.6092)"><path
           d="M 0,0 -23.935,23.934 -29.719,29.719 -50.268,50.268 -100.535,0 h -17.163 v -17.163 l 41.097,-41.097 5.786,-5.784 20.547,-20.549 67.431,67.43 V 0 Z"
           style="fill:#47444b;fill-opacity:1;fill-rule:nonzero;stroke:none"
           id="path107" /></g><g
         id="g109"
         transform="translate(548.825,388.6092)"><path
           d="M 0,0 20.548,-20.549 41.097,-41.098 72.795,-9.399 52.246,11.149 82.194,41.097 61.646,61.646 Z"
           style="fill:#ffb200;fill-opacity:1;fill-rule:nonzero;stroke:none"
           id="path111" /></g><g
         id="g113"
         transform="translate(601.0711,399.7581)"><path
           d="M 0,0 20.549,-20.548 -11.149,-52.247 9.399,-72.795 71.045,-11.149 50.497,9.399 29.948,29.948 Z"
           style="fill:#64616c;fill-opacity:1;fill-rule:nonzero;stroke:none"
           id="path115" /></g><g
         id="g117"
         transform="translate(595.2869,399.7581)"><path
           d="M 0,0 20.548,-20.548 -5.364,-46.461 -40.678,-11.149 15.184,44.712 29.947,29.948 Z M 71.045,-11.149 15.184,-67.01 0.42,-52.246 32.118,-20.548 11.569,0 35.732,24.163 Z m -123.292,0 41.098,-41.097 5.785,-5.785 20.548,-20.549 67.43,67.431 -41.097,41.097 -5.785,5.784 -20.548,20.549 z"
           style="fill:#47444b;fill-opacity:1;fill-rule:nonzero;stroke:none"
           id="path119" /></g></g></g><text
     xml:space="preserve"
     style="font-variant:normal;font-weight:bold;font-stretch:normal;font-size:6.70278px;font-family:'League Spartan';-inkscape-font-specification:LeagueSpartan-Bold;writing-mode:lr-tb;fill:#47444b;fill-opacity:1;fill-rule:nonzero;stroke:none;stroke-width:0.352778"
     id="text147"
     x="405.97418"
     y="150.81645"><tspan
       x="405.97418 411.08841 417.03375 423.44162 427.54373 432.86572 437.866 442.86627 444.76315 448.61725 454.56262 460.18625"
       y="150.81645"
       sodipodi:role="line"
       id="tspan145"
       style="stroke-width:0.352778">COMPANY LOGO</tspan></text><text
     xml:space="preserve"
     style="font-variant:normal;font-weight:normal;font-stretch:normal;font-size:3.37965px;font-family:Lato;-inkscape-font-specification:Lato-Regular;writing-mode:lr-tb;fill:#64616c;fill-opacity:1;fill-rule:nonzero;stroke:none;stroke-width:0.352778"
     id="text151"
     x="415.32471"
     y="155.17036"><tspan
       x="415.32471 417.28488 420.32657 422.78018 425.06821 428.54248 429.74564 431.02991 433.39566 435.5654 438.38739 441.86169 443.06482 445.97131 449.013 450.97354 454.01523"
       y="155.17036"
       sodipodi:role="line"
       id="tspan149"
       style="stroke-width:0.352778">LOREM IPSUM DOLOR</tspan></text><g
     id="g153"
     transform="matrix(0.35277776,0,0,-0.35277778,220,176.38889)"><g
       id="g155"
       clip-path="url(#clipPath159)"><g
         id="g161"
         transform="translate(603.0067,144.6238)"><path
           d="m 0,0 c -24.523,3.954 -43.02,26.157 -41.066,52.184 1.799,23.977 21.157,43.334 45.133,45.134 26.028,1.954 48.231,-16.541 52.185,-41.063 0.663,-4.108 -2.503,-7.837 -6.662,-7.837 h -0.514 c -3.349,0 -6.124,2.47 -6.674,5.773 C 39.51,71.569 23.782,84.664 5.326,83.372 -11.936,82.163 -25.917,68.179 -27.121,50.917 -28.407,32.464 -15.313,16.742 2.063,13.851 5.366,13.301 7.835,10.527 7.835,7.178 V 6.662 C 7.835,2.503 4.105,-0.662 0,0"
           style="fill:#64616c;fill-opacity:1;fill-rule:nonzero;stroke:none"
           id="path163" /></g><g
         id="g165"
         transform="translate(610.8416,151.8015)"><path
           d="m 0,0 c 0,3.349 -2.469,6.123 -5.772,6.673 -9.06,1.508 -16.95,6.508 -22.25,13.56 -3.055,-4.062 -5.249,-8.809 -6.305,-13.971 7.086,-6.955 16.261,-11.789 26.492,-13.44 C -3.729,-7.84 0,-4.675 0,-0.516 Z"
           style="fill:#47444b;fill-opacity:1;fill-rule:nonzero;stroke:none"
           id="path167" /></g><g
         id="g169"
         transform="translate(614.6082,102.0975)"><path
           d="m 0,0 c -26.027,-1.954 -48.229,16.543 -52.185,41.065 -0.662,4.107 2.503,7.836 6.664,7.836 h 0.513 c 3.35,0 6.124,-2.468 6.674,-5.773 2.893,-17.377 18.617,-30.472 37.071,-29.182 17.262,1.206 31.245,15.19 32.451,32.451 1.291,18.455 -11.804,34.179 -29.181,37.072 -3.305,0.55 -5.774,3.324 -5.774,6.674 v 0.513 c 0,4.16 3.73,7.325 7.836,6.663 C 28.592,93.364 47.089,71.162 45.135,45.135 43.335,21.157 23.978,1.8 0,0"
           style="fill:#00a1ff;fill-opacity:1;fill-rule:nonzero;stroke:none"
           id="path171" /></g><g
         id="g173"
         transform="translate(610.8416,192.24)"><path
           d="m 0,0 c 0,-3.35 2.469,-6.124 5.773,-6.674 9.061,-1.508 16.952,-6.51 22.251,-13.563 3.055,4.062 5.248,8.809 6.305,13.971 C 27.243,0.691 18.068,5.526 7.836,7.176 3.729,7.839 0,4.674 0,0.514 Z"
           style="fill:#0072c0;fill-opacity:1;fill-rule:nonzero;stroke:none"
           id="path175" /></g><g
         id="g177"
         transform="translate(595.8416,150.9988)"><path
           d="M 0,0 C 0,8.284 6.716,15 15,15 23.284,15 30,8.284 30,0 30,-8.284 23.284,-15 15,-15 6.716,-15 0,-8.284 0,0"
           style="fill:#00a1ff;fill-opacity:1;fill-rule:nonzero;stroke:none"
           id="path179" /></g><g
         id="g181"
         transform="translate(595.8416,193.0408)"><path
           d="M 0,0 C 0,8.285 6.716,15 15,15 23.284,15 30,8.285 30,0 30,-8.284 23.284,-15 15,-15 6.716,-15 0,-8.284 0,0"
           style="fill:#64616c;fill-opacity:1;fill-rule:nonzero;stroke:none"
           id="path183" /></g></g></g><text
     xml:space="preserve"
     style="font-variant:normal;font-weight:bold;font-stretch:normal;font-size:6.70278px;font-family:'League Spartan';-inkscape-font-specification:LeagueSpartan-Bold;writing-mode:lr-tb;fill:#47444b;fill-opacity:1;fill-rule:nonzero;stroke:none;stroke-width:0.352778"
     id="text187"
     x="240.29471"
     y="150.81645"><tspan
       x="240.29471 245.40894 251.35429 257.76215 261.86426 267.18625 272.18652 277.1868 279.08368 282.93777 288.88315 294.50677"
       y="150.81645"
       sodipodi:role="line"
       id="tspan185"
       style="stroke-width:0.352778">COMPANY LOGO</tspan></text><text
     xml:space="preserve"
     style="font-variant:normal;font-weight:normal;font-stretch:normal;font-size:3.37965px;font-family:'Bebas Neue Regular';-inkscape-font-specification:BebasNeueRegular;writing-mode:lr-tb;fill:#64616c;fill-opacity:1;fill-rule:nonzero;stroke:none;stroke-width:0.352778"
     id="text191"
     x="254.43478"
     y="155.17036"><tspan
       x="254.43478 256.24966 258.24026 260.24777 262.14038 264.58386 265.78363 266.99356 268.93347 270.86664 272.85046 275.29398 276.49374 278.508 280.49863 282.31348 284.30411"
       y="155.17036"
       sodipodi:role="line"
       id="tspan189"
       style="stroke-width:0.352778">LOREM IPSUM DOLOR</tspan></text><g
     id="g193"
     transform="matrix(0.35277776,0,0,-0.35277778,220,176.38889)"><g
       id="g195"
       clip-path="url(#clipPath199)"><g
         id="g201"
         transform="translate(176.2713,187.6472)"><path
           d="m 0,0 c -0.039,4.556 -0.752,9.084 -2.185,13.396 -0.416,1.056 -0.721,2.159 -1.21,3.185 l -1.471,3.077 -1.763,2.923 c -0.27,0.503 -0.627,0.949 -0.97,1.404 l -1.02,1.369 c -2.798,3.592 -6.173,6.735 -9.959,9.271 -3.775,2.567 -8.042,4.348 -12.44,5.479 l -1.652,0.429 c -0.551,0.142 -1.124,0.18 -1.684,0.278 l -1.689,0.257 c -0.563,0.093 -1.124,0.19 -1.698,0.189 l -3.42,0.173 -3.295,-0.157 c -4.368,-0.415 -8.617,-1.784 -12.424,-3.944 -7.645,-4.298 -13.371,-11.875 -15.349,-20.39 -0.517,-2.121 -0.785,-4.303 -0.843,-6.496 l -0.047,-0.821 c 0.002,-0.267 0.029,-0.522 0.04,-0.784 l 0.077,-1.561 c 0.036,-0.518 0.155,-1.026 0.222,-1.541 0.088,-0.51 0.118,-1.034 0.281,-1.529 0.944,-4.029 2.869,-7.853 5.719,-10.895 2.767,-3.119 6.415,-5.375 10.329,-6.697 0.478,-0.204 1,-0.267 1.495,-0.414 0.506,-0.108 0.992,-0.307 1.512,-0.352 1.028,-0.134 2.043,-0.365 3.09,-0.357 0.515,-0.016 1.047,-0.071 1.548,-0.068 l 1.456,0.076 c 0.487,0.015 0.957,0.144 1.437,0.198 0.484,0.046 0.951,0.172 1.415,0.302 3.762,0.896 7.138,3.178 9.587,6.168 1.238,1.496 2.153,3.229 2.831,5.027 0.669,1.804 1.081,3.713 1.1,5.659 0.071,1.875 -0.214,3.563 -0.835,5.22 -0.62,1.636 -1.58,3.15 -2.799,4.421 -2.442,2.565 -5.892,4.045 -9.431,4.022 v 13 c 3.483,-0.003 7.003,-0.705 10.224,-2.093 3.224,-1.381 6.15,-3.418 8.564,-5.942 2.417,-2.521 4.324,-5.535 5.561,-8.813 1.244,-3.255 1.797,-6.857 1.657,-10.231 -0.064,-3.312 -0.751,-6.626 -1.911,-9.738 -1.168,-3.109 -2.786,-6.066 -4.893,-8.635 -4.181,-5.136 -10.001,-8.994 -16.484,-10.566 -0.804,-0.215 -1.611,-0.412 -2.436,-0.515 -0.822,-0.111 -1.64,-0.283 -2.467,-0.326 l -2.481,-0.122 c -0.812,-0.004 -1.592,0.061 -2.389,0.094 -1.589,0.024 -3.159,0.325 -4.731,0.563 -0.791,0.098 -1.55,0.36 -2.326,0.537 -0.765,0.218 -1.554,0.361 -2.296,0.652 -6.036,2.023 -11.586,5.531 -15.821,10.276 -2.18,2.316 -3.951,4.989 -5.457,7.783 -0.697,1.431 -1.416,2.852 -1.913,4.369 -0.255,0.753 -0.584,1.484 -0.766,2.259 l -0.594,2.313 c -0.223,0.765 -0.304,1.559 -0.434,2.344 -0.109,0.786 -0.262,1.57 -0.323,2.36 l -0.122,2.376 c -0.015,0.394 -0.044,0.796 -0.044,1.185 l 0.053,1.148 c 0.086,3.059 0.471,6.12 1.197,9.101 1.421,5.975 4.108,11.638 7.807,16.521 3.695,4.889 8.397,9.006 13.741,12.018 5.337,3.014 11.324,4.92 17.429,5.495 1.525,0.079 3.061,0.176 4.579,0.211 l 4.455,-0.226 c 0.744,-0.015 1.48,-0.13 2.216,-0.246 l 2.208,-0.337 c 0.733,-0.128 1.477,-0.199 2.2,-0.379 l 2.165,-0.553 c 5.752,-1.498 11.339,-3.819 16.289,-7.143 4.965,-3.288 9.388,-7.373 13.061,-12.059 l 1.34,-1.787 c 0.446,-0.596 0.903,-1.184 1.272,-1.834 0.777,-1.27 1.562,-2.539 2.316,-3.823 L 8.352,21.729 C 8.987,20.38 9.426,18.947 9.962,17.556 11.898,11.913 12.91,5.962 13,0 Z"
           style="fill:#ffb200;fill-opacity:1;fill-rule:nonzero;stroke:none"
           id="path203" /></g><g
         id="g205"
         transform="translate(144.9632,187.5281)"><path
           d="m 0,0 c -0.188,-0.914 -0.448,-1.812 -0.771,-2.686 -0.679,-1.797 -1.594,-3.531 -2.831,-5.027 -2.45,-2.99 -5.826,-5.272 -9.587,-6.168 -0.465,-0.13 -0.932,-0.256 -1.415,-0.302 -0.481,-0.054 -0.951,-0.183 -1.438,-0.198 l -1.456,-0.076 c -0.501,-0.003 -1.033,0.052 -1.548,0.068 -1.047,-0.007 -2.062,0.223 -3.09,0.357 -0.147,0.012 -0.291,0.039 -0.434,0.071 -2.737,-3.445 -4.901,-7.361 -6.354,-11.606 0.677,-0.24 1.384,-0.387 2.075,-0.583 0.776,-0.178 1.535,-0.44 2.326,-0.537 1.572,-0.239 3.142,-0.54 4.732,-0.564 0.796,-0.033 1.576,-0.098 2.388,-0.094 l 2.481,0.122 c 0.827,0.043 1.645,0.215 2.467,0.327 0.825,0.102 1.632,0.299 2.436,0.514 6.483,1.572 12.303,5.43 16.484,10.567 2.107,2.568 3.725,5.525 4.893,8.634 0.921,2.47 1.537,5.067 1.787,7.69 C 11.438,0.705 9.707,0.817 7.948,0.817 5.225,0.817 2.567,0.534 0,0"
           style="fill:#ff9800;fill-opacity:1;fill-rule:nonzero;stroke:none"
           id="path207" /></g><g
         id="g209"
         transform="translate(145.2649,98.5242)"><path
           d="m 0,0 c -29.937,0 -54.293,24.355 -54.293,54.293 h 13 C -41.293,31.524 -22.769,13 0,13 c 17.498,0 31.734,14.236 31.734,31.734 0,13.282 -10.806,24.087 -24.088,24.087 -9.908,0 -17.969,-8.061 -17.969,-17.969 0,-7.21 5.865,-13.076 13.076,-13.076 v -13 c -14.378,0 -26.076,11.698 -26.076,26.076 0,17.077 13.893,30.969 30.969,30.969 20.451,0 37.088,-16.636 37.088,-37.087 C 44.734,20.067 24.667,0 0,0"
           style="fill:#64616c;fill-opacity:1;fill-rule:nonzero;stroke:none"
           id="path211" /></g><g
         id="g213"
         transform="translate(122.0994,152.5037)"><path
           d="M 0,0 C 0.879,-0.111 1.81,-0.201 2.805,-0.223 L 3.387,-0.252 C 4.049,-0.288 4.711,-0.32 5.39,-0.32 l 0.286,0.001 2.681,0.132 c 0.986,0.051 1.838,0.186 2.523,0.295 0.201,0.033 0.401,0.065 0.515,0.081 0.637,0.08 1.245,0.189 1.816,0.311 1.683,8.175 8.935,14.342 17.601,14.342 1.665,0 3.291,-0.17 4.862,-0.493 2.499,3.094 4.534,6.681 6.044,10.7 0.128,0.345 0.245,0.691 0.363,1.037 -3.556,1.137 -7.341,1.756 -11.269,1.756 C 14.791,27.842 1.573,15.614 0,0"
           style="fill:#47444b;fill-opacity:1;fill-rule:nonzero;stroke:none"
           id="path215" /></g></g></g><g
     id="g4783"
     transform="matrix(0.20842356,0,0,0.20842356,-6.7581527,12.579049)"><g
       id="g129"
       transform="matrix(0.46240831,0,0,-0.46240834,-101.55113,55.250329)"><g
         id="g131"
         clip-path="url(#clipPath135)"><g
           id="g137"
           transform="translate(382.5476,241.0154)"><path
             d="m 0,0 v 0 l -53.112,-53.112 c -13.498,-13.498 -13.498,-35.383 0,-48.881 l 0.95,-0.949 c 6.537,-6.537 17.136,-6.537 23.672,0 l 23.207,23.206 -0.95,0.95 c -6.537,6.536 -17.135,6.536 -23.672,0.001 L 0,-48.88 C 13.498,-35.382 13.498,-13.498 0,0"
             style="fill:#ffb200;fill-opacity:1;fill-rule:nonzero;stroke:none"
             id="path139" /></g><g
           id="g141"
           transform="translate(423.9119,199.8103)"><path
             d="m 0,0 v 0 l -0.95,0.95 c -6.537,6.537 -17.136,6.537 -23.673,0 l -23.842,-23.842 0.95,-0.95 c 6.537,-6.536 17.135,-6.537 23.672,-0.001 l -29.27,-29.269 c -13.498,-13.498 -13.498,-35.383 0,-48.88 L 0,-48.88 C 13.498,-35.382 13.498,-13.498 0,0"
             style="fill:#ececec;fill-opacity:1;fill-rule:nonzero;stroke:none"
             id="path143" /></g></g></g><text
       xml:space="preserve"
       transform="matrix(0.62140975,0,0,0.77948422,-68.655362,71.302828)"
       id="text4554"
       style="font-style:normal;font-variant:normal;font-weight:normal;font-stretch:normal;font-size:40.2009px;font-family:Roboto;-inkscape-font-specification:'Roboto, Normal';font-variant-ligatures:normal;font-variant-caps:normal;font-variant-numeric:normal;font-variant-east-asian:normal;white-space:pre;shape-inside:url(#rect4556);display:inline;opacity:1;fill:#ffb200;fill-opacity:1;stroke-width:2.116;stroke-dasharray:none"><tspan
         x="284.46875"
         y="-107.56148"
         id="tspan779"><tspan
           style="font-weight:bold;font-family:Bahnschrift;-inkscape-font-specification:'Bahnschrift, Bold';fill:#f9f9f9"
           id="tspan775">Dalion</tspan><tspan
           style="font-weight:bold;font-family:Bahnschrift;-inkscape-font-specification:'Bahnschrift, Bold'"
           id="tspan777">dev</tspan></tspan></text></g></svg>
